<svg width="82" height="822" viewBox="0 0 82 822" fill="none" xmlns="http://www.w3.org/2000/svg">
<path d="M70 807.98L70 813.38L16 813.38L16 801.356L64.96 778.46L64.96 775.22L16 775.22L16 769.82L70 769.82L70 781.844L21.04 804.74L21.04 807.98L70 807.98ZM70 752.005L70 757.405L16 757.405L16 752.005L70 752.005ZM70 708.398L43.36 727.55L43.36 734.174L70 734.174L70 739.574L16 739.574L16 734.174L38.32 734.174L38.32 727.982L16 709.478L16 702.782L40.408 722.87L70 701.702L70 708.398ZM64.96 661.734L70 661.734L70 695.358L16 695.358L16 662.886L21.04 662.886L21.04 689.958L38.32 689.958L38.32 664.038L43.36 664.038L43.36 689.958L64.96 689.958L64.96 661.734Z" fill="#020A0F"/>
<path d="M30.3505 596.696C26.5679 594.124 21.994 590.487 16.6221 585.769C17.9304 586.204 19.2558 586.589 20.5958 586.922L20.5957 586.922L20.6083 586.925C25.9574 588.217 30.772 588.327 34.9659 587.089C39.1966 585.839 42.644 583.261 45.2837 579.458L45.2893 579.45L45.2948 579.442C47.8414 575.695 49.0025 570.716 49.0025 564.715L49.0025 564.698L49.0022 564.682C48.9126 559.256 48.1657 553.862 46.7787 548.626C46.7783 548.624 46.7779 548.623 46.7775 548.621L14.2617 423.653L67.2326 551.856C67.2329 551.856 67.2333 551.857 67.2336 551.858C72.4638 564.603 75 575.126 75 583.494C75 592.905 71.8464 599.364 65.8231 603.349C62.0556 605.795 57.1296 606.619 50.8199 605.526C44.5172 604.435 37.6978 601.528 30.3505 596.696Z" stroke="black" stroke-width="4"/>
<path d="M70 361.434L70 369.426L64.96 369.426L64.96 361.434C64.96 354.474 61.216 350.994 53.728 350.994L16 350.994L16 345.594L53.944 345.594C59.224 345.594 63.232 346.986 65.968 349.77C68.656 352.506 70 356.394 70 361.434ZM49.984 296.611C56.512 296.611 61.672 298.387 65.464 301.939C69.208 305.491 71.08 310.291 71.08 316.339C71.08 322.387 69.208 327.187 65.464 330.739C61.672 334.291 56.512 336.067 49.984 336.067L16 336.067L16 330.667L50.488 330.667C55.192 330.667 58.936 329.419 61.72 326.923C64.504 324.379 65.896 320.851 65.896 316.339C65.896 311.827 64.504 308.323 61.72 305.827C58.936 303.283 55.192 302.011 50.488 302.011L16 302.011L16 296.611L49.984 296.611ZM70 268.71L70 289.59L64.672 289.59L64.672 268.35C64.672 263.79 63.568 260.382 61.36 258.126C59.152 255.822 56.416 254.67 53.152 254.67C45.856 254.67 42.208 259.23 42.208 268.35L42.208 274.83C42.208 279.006 41.008 282.462 38.608 285.198C36.208 287.886 33.112 289.23 29.32 289.23C25.384 289.23 22.192 287.862 19.744 285.126C17.248 282.342 16 278.766 16 274.398L16 252.51L21.328 252.51L21.328 274.686C21.328 277.566 22.096 279.774 23.632 281.31C25.12 282.846 27.016 283.614 29.32 283.614C31.48 283.614 33.28 282.846 34.72 281.31C36.16 279.774 36.88 277.566 36.88 274.686L36.88 268.35C36.88 261.918 38.416 257.094 41.488 253.878C44.56 250.662 48.424 249.054 53.08 249.054C57.928 249.054 61.96 250.71 65.176 254.022C68.392 257.286 70 262.182 70 268.71ZM70 226.306L70 231.706L21.04 231.706L21.04 245.602L16 245.602L16 212.338L21.04 212.338L21.04 226.306L70 226.306ZM70 174.216L70 189.624L16 189.624L16 174.288C16 165.264 18.472 158.184 23.416 153.048C28.36 147.912 34.888 145.344 43 145.344C51.16 145.344 57.712 147.912 62.656 153.048C67.552 158.184 70 165.24 70 174.216ZM21.04 174.36L21.04 184.224L64.96 184.224L64.96 174.288C64.96 166.32 62.92 160.416 58.84 156.576C54.76 152.736 49.48 150.816 43 150.816C36.568 150.816 31.312 152.76 27.232 156.648C23.104 160.488 21.04 166.392 21.04 174.36ZM43.072 82.0606C50.992 82.0606 57.64 84.7246 63.016 90.0526C68.392 95.3806 71.08 102.077 71.08 110.141C71.08 118.157 68.392 124.853 63.016 130.229C57.64 135.557 50.992 138.221 43.072 138.221C35.104 138.221 28.432 135.557 23.056 130.229C17.68 124.853 14.992 118.157 14.992 110.141C14.992 102.077 17.68 95.3806 23.056 90.0526C28.432 84.7246 35.104 82.0606 43.072 82.0606ZM43.072 132.605C49.648 132.605 55.096 130.493 59.416 126.269C63.736 122.045 65.896 116.669 65.896 110.141C65.896 103.613 63.736 98.2366 59.416 94.0126C55.096 89.7886 49.648 87.6766 43.072 87.6766C36.448 87.6766 30.976 89.7886 26.656 94.0126C22.336 98.2366 20.176 103.613 20.176 110.141C20.176 116.669 22.336 122.045 26.656 126.269C30.976 130.493 36.448 132.605 43.072 132.605ZM70 50.5059L70 55.9059L16 55.9059L16 50.5059L70 50.5059ZM70 23.0984L70 28.4984L21.04 28.4984L21.04 42.3944L16 42.3944L16 9.13038L21.04 9.13038L21.04 23.0984L70 23.0984Z" fill="#020A0F"/>
</svg>
