<svg width="822" height="82" viewBox="0 0 822 82" fill="none" xmlns="http://www.w3.org/2000/svg">
<path d="M14.0202 70H8.62015L8.62015 16L20.6442 16L43.5402 64.96L46.7802 64.96L46.7802 16L52.1802 16L52.1802 70L40.1562 70L17.2602 21.04H14.0202L14.0202 70ZM69.9948 70H64.5948L64.5948 16H69.9948L69.9948 70ZM113.602 70L94.4504 43.36H87.8264L87.8264 70H82.4264L82.4264 16L87.8264 16V38.32H94.0184L112.522 16L119.218 16L99.1304 40.408L120.298 70H113.602ZM160.266 64.96V70L126.642 70L126.642 16L159.114 16V21.04L132.042 21.04V38.32L157.962 38.32V43.36L132.042 43.36V64.96L160.266 64.96Z" fill="#020A0F"/>
<path d="M216.474 50.8199C217.565 44.5172 220.472 37.6978 225.304 30.3505C227.876 26.5679 231.513 21.994 236.231 16.6221C235.796 17.9304 235.411 19.2558 235.078 20.5957L235.078 20.5957L235.075 20.6083C233.783 25.9574 233.673 30.772 234.911 34.9659C236.161 39.1966 238.739 42.644 242.542 45.2837L242.55 45.2893L242.558 45.2948C246.305 47.8414 251.284 49.0025 257.285 49.0025H257.302L257.318 49.0022C262.745 48.9126 268.138 48.1657 273.375 46.7786C273.376 46.7782 273.378 46.7778 273.379 46.7775L398.347 14.2617L270.144 67.2326C270.143 67.233 270.142 67.2334 270.141 67.2338C257.396 72.4639 246.874 75 238.506 75C229.095 75 222.636 71.8464 218.651 65.8231C216.205 62.0556 215.381 57.1296 216.474 50.8199Z" stroke="black" stroke-width="4"/>
<path d="M460.566 70H452.574V64.96H460.566C467.526 64.96 471.006 61.216 471.006 53.728V16H476.406V53.944C476.406 59.224 475.014 63.232 472.23 65.968C469.494 68.656 465.606 70 460.566 70ZM525.389 49.984C525.389 56.512 523.613 61.672 520.061 65.464C516.509 69.208 511.709 71.08 505.661 71.08C499.613 71.08 494.813 69.208 491.261 65.464C487.709 61.672 485.933 56.512 485.933 49.984V16H491.333V50.488C491.333 55.192 492.581 58.936 495.077 61.72C497.621 64.504 501.149 65.896 505.661 65.896C510.173 65.896 513.677 64.504 516.173 61.72C518.717 58.936 519.989 55.192 519.989 50.488V16L525.389 16V49.984ZM553.29 70H532.41V64.672H553.65C558.21 64.672 561.618 63.568 563.874 61.36C566.178 59.152 567.33 56.416 567.33 53.152C567.33 45.856 562.77 42.208 553.65 42.208L547.17 42.208C542.994 42.208 539.538 41.008 536.802 38.608C534.114 36.208 532.77 33.112 532.77 29.32C532.77 25.384 534.138 22.192 536.874 19.744C539.658 17.248 543.234 16 547.602 16L569.49 16V21.328L547.314 21.328C544.434 21.328 542.226 22.096 540.69 23.632C539.154 25.12 538.386 27.016 538.386 29.32C538.386 31.48 539.154 33.28 540.69 34.72C542.226 36.16 544.434 36.88 547.314 36.88L553.65 36.88C560.082 36.88 564.906 38.416 568.122 41.488C571.338 44.56 572.946 48.424 572.946 53.08C572.946 57.928 571.29 61.96 567.978 65.176C564.714 68.392 559.818 70 553.29 70ZM595.694 70H590.294V21.04L576.398 21.04V16L609.662 16V21.04L595.694 21.04V70ZM647.784 70H632.376V16L647.712 16C656.736 16 663.816 18.472 668.952 23.416C674.088 28.36 676.656 34.888 676.656 43C676.656 51.16 674.088 57.712 668.952 62.656C663.816 67.552 656.76 70 647.784 70ZM647.64 21.04H637.776V64.96H647.712C655.68 64.96 661.584 62.92 665.424 58.84C669.264 54.76 671.184 49.48 671.184 43C671.184 36.568 669.24 31.312 665.352 27.232C661.512 23.104 655.608 21.04 647.64 21.04ZM739.939 43.072C739.939 50.992 737.275 57.64 731.947 63.016C726.619 68.392 719.923 71.08 711.859 71.08C703.843 71.08 697.147 68.392 691.771 63.016C686.443 57.64 683.779 50.992 683.779 43.072C683.779 35.104 686.443 28.432 691.771 23.056C697.147 17.68 703.843 14.992 711.859 14.992C719.923 14.992 726.619 17.68 731.947 23.056C737.275 28.432 739.939 35.104 739.939 43.072ZM689.395 43.072C689.395 49.648 691.507 55.096 695.731 59.416C699.955 63.736 705.331 65.896 711.859 65.896C718.387 65.896 723.763 63.736 727.987 59.416C732.211 55.096 734.323 49.648 734.323 43.072C734.323 36.448 732.211 30.976 727.987 26.656C723.763 22.336 718.387 20.176 711.859 20.176C705.331 20.176 699.955 22.336 695.731 26.656C691.507 30.976 689.395 36.448 689.395 43.072ZM771.494 70H766.094V16L771.494 16V70ZM798.902 70H793.502V21.04L779.606 21.04V16L812.87 16V21.04L798.902 21.04V70Z" fill="#020A0F"/>
</svg>
