<svg xmlns="http://www.w3.org/2000/svg" width="164" height="164" fill="none" xmlns:v="https://vecta.io/nano"><mask id="A" fill="#fff"><path d="M121.881 135.967l8.838 2.227 1.406-1.186-4.77-5.657 1.146-.967 9.67 11.467-1.146.967-3.997-4.74-1.315 1.109.067 8.053-1.422 1.199-.105-8.78-9.794-2.493 1.422-1.199zm-9.669 7.605l-.71-1.206 8.048-4.739 7.612 12.926-7.773 4.576-.71-1.207 6.48-3.815-2.436-4.136-6.204 3.653-.711-1.206 6.205-3.653-3.045-5.17-6.756 3.977zm-10.435 4.095l-.501-1.307 8.719-3.347 5.378 14.003-8.421 3.232-.502-1.307 7.021-2.695-1.721-4.481-6.722 2.58-.502-1.306 6.722-2.581-2.151-5.601-7.32 2.81zm-5.901 5.784l3.508-.712-1.155-5.683 1.47-.299 2.988 14.7-4.959 1.006c-1.581.321-2.907.155-3.979-.498-1.085-.651-1.761-1.636-2.029-2.956-.273-1.345-.044-2.528.687-3.547s1.888-1.69 3.469-2.011zm1.475 7.66l3.587-.728-1.275-6.272-3.508.712c-1.202.244-2.031.719-2.486 1.423-.466.721-.606 1.538-.42 2.453.181.889.618 1.568 1.313 2.04.684.487 1.614.611 2.79.372zm-29.52-5.586c.183-2.192 1.075-3.971 2.674-5.335s3.515-1.953 5.747-1.766c2.219.187 4.01 1.086 5.374 2.699 1.35 1.612 1.934 3.514 1.75 5.707-.184 2.205-1.076 3.99-2.676 5.355-1.613 1.363-3.528 1.951-5.747 1.765-2.232-.187-4.023-1.087-5.374-2.699s-1.933-3.52-1.749-5.726zm13.991 1.174c.152-1.82-.306-3.377-1.375-4.671s-2.507-2.017-4.314-2.169-3.345.322-4.614 1.419-1.98 2.557-2.132 4.377c-.153 1.834.305 3.398 1.374 4.692s2.507 2.017 4.314 2.168 3.345-.321 4.614-1.419 1.981-2.563 2.134-4.397zm-15.745-9.497l1.431.449-4.481 14.315-3.187-.999-2.006-14.88-.859-.269-4.063 12.979-1.431-.448 4.481-14.315 3.187.998 2.006 14.88.859.269 4.063-12.979zm-20.965-9.307l4.846 3.186-.813 1.237-4.93-3.242c-1.058-.696-2.018-.959-2.878-.791a3.03 3.03 0 0 0-2.055 1.377c-1.113 1.694-.612 3.237 1.505 4.628l1.504.99c.969.637 1.588 1.443 1.857 2.418.258.967.097 1.891-.482 2.771-.601.913-1.405 1.445-2.414 1.596-1.027.154-2.047-.102-3.061-.768l-5.08-3.341.813-1.237 5.147 3.385c.669.44 1.298.598 1.889.476.584-.111 1.051-.434 1.403-.968a1.97 1.97 0 0 0 .289-1.605c-.137-.569-.539-1.073-1.208-1.513l-1.471-.967c-1.493-.981-2.378-2.074-2.656-3.278s-.061-2.346.649-3.427c.74-1.125 1.739-1.808 2.999-2.049 1.248-.249 2.63.125 4.145 1.122zm-19.246-9.721c1.568-.851 3.178-1.184 4.829-.999s3.109.9 4.372 2.144c1.577 1.553 2.369 3.381 2.376 5.483s-.761 3.938-2.305 5.506c-1.553 1.577-3.376 2.383-5.469 2.418-2.102.025-3.947-.743-5.533-2.305-1.245-1.226-1.986-2.658-2.225-4.297-.258-1.638.018-3.229.826-4.772l1.14 1.123c-.528 1.22-.688 2.437-.481 3.652.198 1.224.781 2.314 1.751 3.268 1.283 1.263 2.763 1.878 4.441 1.846 1.669-.041 3.148-.717 4.439-2.028 1.282-1.302 1.93-2.787 1.946-4.456.006-1.678-.633-3.149-1.915-4.412-.988-.973-2.11-1.544-3.365-1.713-1.265-.179-2.503.033-3.715.637l-1.112-1.095zm-4.71-5.92l2.124 3.151 4.975-3.354.838 1.244-12.439 8.384-2.951-4.378c-.894-1.327-1.25-2.607-1.068-3.839.164-1.236.793-2.223 1.888-2.96.807-.544 1.656-.811 2.548-.801s1.736.309 2.534.897l3.675-5.926.917 1.36-3.488 5.631.447.591zm-6.347 4.181l2.169 3.217 5.141-3.465-2.124-3.151c-.686-1.017-1.436-1.605-2.25-1.763s-1.598.015-2.349.522c-.73.492-1.174 1.145-1.332 1.959-.166.804.083 1.697.746 2.681zm-4.655-23.47c2.036-.834 4.025-.85 5.968-.047s3.34 2.241 4.19 4.314c.845 2.06.859 4.064.044 6.012-.82 1.936-2.248 3.321-4.284 4.155-2.048.839-4.044.857-5.987.054-1.948-.816-3.345-2.253-4.19-4.314-.85-2.072-.864-4.076-.044-6.012s2.255-3.323 4.303-4.162zm5.326 12.99c1.69-.692 2.868-1.809 3.533-3.349s.654-3.15-.034-4.828-1.81-2.832-3.365-3.463-3.178-.599-4.869.093c-1.703.698-2.887 1.817-3.552 3.358s-.654 3.15.034 4.827 1.81 2.832 3.365 3.463 3.185.597 4.887-.101zm-1.055-23.248l1.37-.288 1.28 6.066-14.678 3.092-.31-1.468 13.308-2.803-.97-4.599zm-.802-8.704l1.396-.112.496 6.18L.562 91.268l-.12-1.495 13.557-1.085-.376-4.685zm1.49-3.895l-.032 1.5-14.996-.329.032-1.5 14.996.329zm.17-4.872l-.25 1.479-14.79-2.502.556-3.293 14.469-4.002.15-.887-13.409-2.269.25-1.479 14.79 2.502-.556 3.293-14.47 4.002-.15.887 13.409 2.269zm1.119-28.455c1.912.784 3.263 2.13 4.051 4.039.776 1.903.762 3.836-.041 5.798-.839 2.048-2.23 3.474-4.173 4.277s-3.932.787-5.968-.047c-2.048-.84-3.487-2.215-4.318-4.126-.826-1.924-.821-3.903.013-5.939.657-1.604 1.706-2.845 3.147-3.724s3.02-1.233 4.737-1.063l-.599 1.462c-1.312-.034-2.504.292-3.577.976-1.068.672-1.86 1.637-2.375 2.895-.677 1.653-.678 3.238-.003 4.754s1.865 2.623 3.567 3.321c1.69.693 3.31.73 4.86.112 1.555-.63 2.674-1.779 3.357-3.444.602-1.468.667-2.911.196-4.329a5.73 5.73 0 0 0-2.71-3.251L14.677 53.1l-1.295-.531 2.465-6.015.555.228zm8.18-7.248l-.916 1.263-2.105-1.527.916-1.263 2.105 1.527zM40.416 29.47l-8.902-1.954-1.369 1.229 4.943 5.507-1.116 1.002-10.02-11.164 1.116-1.002 4.141 4.614 1.28-1.149-.316-8.047 1.384-1.242.375 8.773 9.866 2.191-1.384 1.242zm9.429-7.907l.747 1.184-7.901 4.981L34.69 15.04l7.63-4.811.747 1.184-6.361 4.011 2.56 4.06 6.091-3.84.747 1.184-6.091 3.84 3.2 5.075 6.632-4.181zm10.386-4.453l.541 1.291-8.616 3.606-5.794-13.836 8.321-3.482.541 1.291-6.937 2.903 1.854 4.427 6.642-2.78.541 1.291-6.642 2.78L53 20.135l7.232-3.027zm5.534-5.917l-3.486.815 1.322 5.647-1.461.341-3.418-14.605L63.65 2.24c1.571-.367 2.902-.24 3.992.381 1.103.618 1.808 1.583 2.115 2.895.313 1.337.119 2.526-.583 3.566s-1.838 1.744-3.409 2.111zm-1.7-7.613l-3.564.833 1.458 6.232 3.486-.815c1.194-.279 2.009-.778 2.444-1.495.445-.734.56-1.555.348-2.464-.207-.883-.664-1.55-1.372-2-.698-.467-1.631-.563-2.8-.29zm29.648 4.651c-.12 2.197-.959 4-2.518 5.411s-3.457 2.054-5.693 1.932c-2.223-.122-4.04-.969-5.45-2.541-1.397-1.572-2.035-3.456-1.916-5.653.12-2.21.96-4.02 2.519-5.431 1.572-1.41 3.47-2.054 5.693-1.932 2.237.122 4.053.97 5.45 2.542s2.035 3.463 1.915 5.673zm-14.019-.767c-.099 1.824.404 3.367 1.511 4.629s2.565 1.943 4.375 2.042 3.334-.418 4.571-1.553 1.905-2.613 2.004-4.437c.1-1.837-.403-3.387-1.51-4.649s-2.565-1.943-4.376-2.042-3.334.418-4.571 1.553-1.905 2.62-2.005 4.457zM95.563 16.4l-1.444-.406 4.056-14.441 3.216.904 2.445 14.815.867.244 3.677-13.093 1.444.406-4.056 14.441-3.215-.904-2.446-14.815-.866-.244L95.563 16.4zm21.528 8.731l-4.941-3.038.775-1.261 5.026 3.09c1.079.663 2.046.898 2.901.704.867-.187 1.537-.667 2.012-1.44 1.061-1.727.513-3.253-1.646-4.58l-1.533-.943c-.988-.608-1.631-1.394-1.93-2.36-.287-.959-.154-1.887.397-2.785.573-.931 1.361-1.488 2.364-1.669 1.022-.186 2.05.039 3.083.675l5.18 3.184-.775 1.261-5.248-3.226c-.681-.419-1.316-.559-1.902-.418-.58.129-1.038.466-1.373 1.011a1.97 1.97 0 0 0-.24 1.613c.154.564.572 1.056 1.253 1.475l1.499.922c1.522.936 2.441 2.001 2.755 3.196s.132 2.343-.545 3.445c-.705 1.147-1.683 1.861-2.935 2.14-1.24.286-2.632-.046-4.177-.995zm19.337 8.931c-1.541.899-3.14 1.282-4.796 1.148s-3.135-.804-4.437-2.008c-1.624-1.504-2.472-3.306-2.544-5.407s.64-3.959 2.134-5.574c1.504-1.624 3.301-2.486 5.392-2.586 2.1-.09 3.968.62 5.602 2.133 1.281 1.186 2.067 2.595 2.356 4.226.309 1.63.083 3.228-.678 4.796l-1.174-1.087c.49-1.236.613-2.458.368-3.666-.236-1.217-.853-2.288-1.851-3.212-1.321-1.223-2.819-1.792-4.495-1.709-1.667.093-3.125.814-4.375 2.165-1.241 1.34-1.843 2.845-1.807 4.514.046 1.678.729 3.128 2.05 4.351 1.018.942 2.157 1.478 3.417 1.609 1.269.14 2.5-.111 3.693-.751l1.145 1.06zm4.984 5.807l-2.219-3.084-4.871 3.504-.876-1.218 12.176-8.76 3.084 4.286c.935 1.299 1.33 2.567 1.186 3.804-.126 1.24-.725 2.246-1.797 3.017-.79.568-1.63.861-2.522.878s-1.744-.256-2.56-.819l-3.492 6.036-.958-1.331 3.314-5.735-.465-.577zm6.216-4.374l-2.266-3.149-5.033 3.621 2.22 3.084c.716.996 1.484 1.56 2.303 1.694s1.596-.064 2.332-.594c.715-.514 1.139-1.18 1.272-1.999.141-.808-.134-1.694-.828-2.657zm5.415 23.301c-2.01.895-3.998.97-5.964.225s-3.406-2.14-4.317-4.186c-.906-2.034-.981-4.037-.224-6.008.762-1.959 2.148-3.386 4.158-4.281 2.022-.9 4.016-.978 5.983-.233 1.971.757 3.41 2.152 4.316 4.186.912 2.046.986 4.049.224 6.008s-2.154 3.389-4.176 4.289zm-5.712-12.825c-1.669.743-2.813 1.894-3.432 3.454s-.559 3.168.178 4.825 1.894 2.777 3.468 3.36 3.195.504 4.863-.239c1.681-.748 2.831-1.902 3.45-3.462s.56-3.168-.178-4.824-1.894-2.777-3.467-3.36-3.201-.502-4.882.247zm1.83 23.326l-1.361.329-1.457-6.026 14.581-3.522.352 1.458-13.22 3.193 1.105 4.568zm1.083 8.737l-1.392.152-.675-6.163 14.911-1.631.163 1.491-13.519 1.479.512 4.672zm-1.364 3.713l-.011-1.5 14.999-.107.012 1.5-15 .107zm0 5.015l.207-1.486 14.856 2.069-.459 3.308-14.346 4.423-.124.892 13.47 1.876-.206 1.486-14.857-2.069.46-3.308 14.345-4.423.124-.892-13.47-1.876zm-.25 28.527c-1.935-.726-3.325-2.032-4.17-3.916-.833-1.879-.877-3.811-.132-5.796.778-2.072 2.126-3.539 4.044-4.399s3.907-.905 5.966-.131c2.072.778 3.552 2.11 4.439 3.996.883 1.898.938 3.877.165 5.936-.609 1.623-1.621 2.896-3.035 3.817s-2.981 1.323-4.703 1.204l.556-1.48c1.312-.005 2.494-.366 3.546-1.082 1.047-.703 1.81-1.692 2.288-2.965.628-1.673.581-3.257-.139-4.752s-1.942-2.567-3.665-3.214c-1.71-.642-3.33-.631-4.861.033-1.536.677-2.62 1.858-3.253 3.543-.557 1.485-.579 2.93-.066 4.333.525 1.408 1.46 2.464 2.805 3.169l1.75-4.663 1.311.493-2.284 6.085-.562-.211zm-7.1 11.744l.882-1.287 2.145 1.469-.882 1.287-2.145-1.469z"/><path fill-rule="evenodd" d="M105.91 50.706c-.147-.603-.36-.928-.86-1.313-.652-.503-1.699-.512-2.418-.022-.276.188-5.008 4.44-10.515 9.449l-10.111 9.106c-.054 0-4.605-4.098-10.112-9.106l-10.489-9.432c-.679-.464-1.426-.514-2.141-.142-.721.375-1.112.961-1.214 1.821-.044.369-.062 3.66-.04 7.314.037 6.265.053 6.666.283 7.049.32.534 22.036 20.275 22.718 20.652.603.333 1.201.369 1.817.109.516-.218 22.204-19.856 22.753-20.603l.383-.521.021-6.987-.074-7.374zm-.071 28.378c-.212-.602-.95-1.303-1.498-1.424-.21-.047-.632-.047-.937-.001-.668.101.263-.709-11.997 10.435l-9.404 8.469c-.048 0-4.594-4.099-10.104-9.11l-10.452-9.446c-.359-.278-.571-.337-1.224-.339-.669-.002-.86.053-1.259.359-.961.739-.917.333-.917 8.426v7.24l.319.448c.476.667 22.342 20.487 22.828 20.692.531.224 1.087.224 1.619 0 .486-.205 22.353-20.025 22.829-20.692l.319-.448.029-7.046c.024-5.827-.003-7.135-.153-7.562z"/></mask><path d="M121.881 135.967l.244-.97-.497-.125-.392.33.645.765zm8.838 2.227l-.245.97.497.125.392-.33-.644-.765zm1.406-1.186l.645.765.764-.645-.644-.764-.765.644zm-4.77-5.657l-.645-.764-.764.644.644.765.765-.645zm1.146-.967l.765-.644-.645-.765-.764.645.644.764zm9.67 11.467l.645.765.764-.645-.644-.764-.765.644zm-1.146.967l-.765.645.645.764.764-.644-.644-.765zm-3.997-4.74l.764-.644-.644-.765-.765.645.645.764zm-1.315 1.109l-.645-.764-.359.303.004.47 1-.009zm.067 8.053l.645.765.359-.303-.004-.47-1 .008zm-1.422 1.199l-1 .012.025 2.118 1.62-1.365-.645-.765zm-.105-8.78l1-.012-.009-.767-.744-.19-.247.969zm-9.794-2.493l-.645-.765-1.487 1.254 1.885.48.247-.969zm-8.247 6.406l-.862.508.508.861.861-.507-.507-.862zm-.71-1.206l-.508-.862-.862.507.508.862.862-.507zm8.048-4.739l.862-.507-.507-.862-.862.508.507.861zm7.612 12.926l.507.861.862-.507-.507-.862-.862.508zm-7.773 4.576l-.862.507.508.862.861-.508-.507-.861zm-.71-1.207l-.508-.861-.862.507.508.862.862-.508zm6.48-3.815l.507.862.862-.507-.507-.862-.862.507zm-2.436-4.136l.862-.507-.507-.862-.862.507.507.862zm-6.204 3.653l-.862.507.507.862.862-.507-.507-.862zm-.711-1.206l-.507-.862-.862.507.508.862.861-.507zm6.205-3.653l.507.862.862-.508-.507-.862-.862.508zm-3.045-5.17l.862-.508-.507-.861-.862.507.507.862zm-17.191 8.072l-.933.358.358.934.934-.359-.359-.933zm-.501-1.307l-.359-.934-.934.359.359.933.934-.358zm8.719-3.347l.934-.359-.359-.933-.933.358.358.934zm5.378 14.003l.359.933.934-.358-.359-.934-.934.359zm-8.421 3.232l-.933.358.358.934.934-.359-.359-.933zm-.502-1.307l-.358-.934-.934.359.359.934.933-.359zm7.021-2.695l.358.934.934-.359-.358-.933-.934.358zm-1.721-4.481l.934-.358-.359-.933-.933.358.358.933zm-6.722 2.58l-.933.359.358.933.934-.358-.359-.934zm-.502-1.306l-.358-.934-.934.358.359.934.933-.358zm6.722-2.581l.358.934.934-.358-.358-.934-.934.358zm-2.151-5.601l.933-.358-.358-.933-.934.358.359.933zm-13.221 8.594l-.199-.98h0l.199.98zm3.508-.712l.199.98.98-.199-.199-.98-.98.199zm-1.155-5.683l-.199-.981-.98.199.199.981.98-.199zm1.47-.299l.98-.199-.2-.98-.979.199.199.98zm2.988 14.7l.198.98.981-.199-.199-.981-.98.2zm-4.959 1.006l-.199-.98h0l.199.98zm-3.979-.498l.52-.854-.006-.004-.514.858zm-2.029-2.956l.98-.199h0l-.98.199zm5.632 2.102l-.199-.98h0l.199.98zm3.587-.728l.199.98.98-.199-.199-.98-.98.199zm-1.275-6.272l.98-.199-.199-.98-.98.199.199.98zm-3.508.712l-.199-.98h0l.199.98zm-2.486 1.423l.84.543h0l-.84-.543zm-.42 2.453l.98-.199h0l-.98.199zm1.313 2.04l.58-.815-.009-.006-.009-.007-.562.828zm-26.73-5.214l.997.083h0l-.997-.083zm8.421-7.101l.084-.996h0l-.084.996zm5.374 2.699l.767-.642-.003-.003-.764.645zm1.75 5.707l.996.083h0l-.996-.083zm-2.676 5.355l.646.763.003-.002-.649-.761zm-5.747 1.765l.084-.996h0l-.084.996zm6.868-7.251l-.997-.083h0l.997.083zm-12.436-1.044l-.996-.083h0l.996.083zm-3.308-8.453l.299-.954-.954-.299-.299.955.954.298zm1.431.449l.954.299.299-.954-.954-.299-.299.954zm-4.481 14.315l-.299.954.954.299.299-.954-.954-.299zm-3.187-.999l-.991.134.085.631.607.19.299-.955zm-2.006-14.88l.991-.134-.085-.63-.607-.19-.299.954zm-.859-.269l.299-.954-.955-.299-.299.954.954.299zm-4.063 12.979l-.299.954.955.299.299-.954-.954-.299zm-1.431-.448l-.954-.299-.299.954.954.299.299-.954zm4.481-14.315l.299-.955-.954-.299-.299.955.954.299zm3.187.998l.991-.134-.085-.63-.607-.19-.299.954zm2.006 14.88l-.991.134.085.63.607.191.299-.955zm.859.269l-.299.955.954.299.299-.955-.954-.299zm-16.903-22.286l-.549.835h0l.549-.835zm4.846 3.186l.836.55.549-.836-.836-.549-.549.835zm-.813 1.237l-.549.836.836.549.549-.835-.836-.55zm-4.93-3.242l-.549.836h0l.549-.836zm-2.878-.791l.182.983.01-.002-.192-.981zm-2.055 1.377l-.836-.549h0l.836.549zm1.505 4.628l.549-.835h0l-.549.835zm1.504.99l-.549.835h0l.549-.835zm1.857 2.418l.966-.258-.002-.008-.964.266zm-.482 2.771l.836.549h0l-.836-.549zm-2.414 1.596l-.148-.989h-.001l.149.989zm-3.061-.768l-.55.835h0l.55-.835zm-5.08-3.341l-.835-.549-.549.835.835.55.549-.836zm.813-1.237l.549-.835-.836-.55-.549.836.836.549zm5.147 3.385l.55-.836h0l-.55.836zm1.889.476l-.187-.982-.008.001-.008.002.202.979zm1.403-.968l.836.549h0l-.836-.549zm-.919-3.118l.55-.835h0l-.55.835zm-1.471-.967l.55-.835h0l-.55.835zm-2.656-3.278l.974-.225h0l-.974.225zm.649-3.427l-.836-.549h0l.836.549zm2.999-2.049l.188.982.007-.002-.195-.98zm-15.101-8.599l-.477-.879-1.186.644.962.948.702-.713zm4.829-.999l-.111.994h0l.111-.994zm4.372 2.144l.702-.712h0l-.702.712zm.071 10.989l-.713-.702h0l.713.702zm-5.469 2.418l.012 1h.005l-.017-1zm-5.533-2.305l-.702.712h0l.702-.712zm-2.225-4.297l.99-.144-.002-.011-.988.155zm.826-4.772l.702-.713-.961-.946-.626 1.195.886.464zm1.14 1.123l.918.397.272-.629-.488-.481-.702.713zm-.481 3.652l.987-.16-.002-.008-.986.168zm1.751 3.268l.702-.713h0l-.702.713zm4.441 1.846l.019 1h.006l-.025-1zm4.439-2.028l.713.702h0l-.713-.702zm1.946-4.456l1 .009v-.005l-1-.004zm-1.915-4.412l-.702.713h0l.702-.713zm-3.365-1.713l-.14.99.006.001.134-.991zm-3.715.637l-.702.712.509.501.639-.318-.446-.895zm-5.821-7.015l.829-.559h0l-.829.559zm2.124 3.151l-.829.559.559.829.829-.559-.559-.829zm4.975-3.354l.829-.559-.559-.829-.829.559.559.829zm.838 1.244l.559.829.829-.558-.559-.83-.829.559zm-12.439 8.384l-.829.559.559.829.829-.559-.559-.829zm-2.951-4.378l-.829.559h0l.829-.559zm-1.068-3.839l.989.146.001-.007.001-.008-.991-.131zm1.888-2.96l.559.829h0l-.559-.829zm5.082.096l-.593.805.872.642.571-.92-.85-.527zm3.675-5.926l.829-.559-.864-1.282-.815 1.314.85.527zm.917 1.36l.85.526.34-.549-.361-.536-.829.559zm-3.488 5.631l-.85-.527-.372.601.443.552.78-.626zm-5.9 4.772l-.829.559h0l.829-.559zm2.169 3.217l-.829.559.559.829.829-.558-.559-.83zm5.141-3.465l.559.83.829-.559-.559-.83-.829.559zm-2.124-3.151l.829-.559h0l-.829.559zm-2.25-1.763l-.191.981h0l.191-.981zm-2.349.522l-.559-.829h0l.559.829zm-1.332 1.959l.979.203.002-.012-.982-.191zm-3.909-20.789l-.379-.925h0l.379.925zm5.968-.047l.382-.924h0l-.382.924zm4.19 4.314l.925-.379h0l-.925.379zm.044 6.012l.921.39.002-.004-.922-.386zm-4.284 4.155l-.379-.925h0l.379.925zm-5.987.054l-.386.922.004.002.382-.924zm-4.19-4.314l-.925.38h0l.925-.38zm-.044-6.012l.921.39h0l-.921-.39zm9.629 8.828l.379.926h0l-.379-.926zm.134-11.64l.376-.926h0l-.376.926zm-4.869.093l.379.926h0l-.379-.926zm-3.552 3.358l-.918-.397h0l.918.397zm.034 4.827l-.925.38h0l.925-.38zm3.365 3.463l-.376.927h0l.376-.927zm3.832-23.349l-.206-.978-.979.206.206.979.978-.206zm1.37-.288l.978-.206-.206-.978-.978.206.206.979zm1.28 6.066l.206.979.979-.206-.206-.979-.979.206zm-14.678 3.092l-.978.206.206.979.978-.206-.206-.979zm-.31-1.468l-.206-.978-.979.206.206.979.978-.207zm13.308-2.803l.206.978.979-.206-.206-.979-.979.206zm-1.772-13.303l-.08-.997-.997.08.08.997.997-.08zm1.396-.112l.997-.08-.08-.996-.997.08.08.997zm.496 6.18l.08.997.997-.08-.08-.997-.997.08zM.562 91.268l-.997.08.08.996.997-.08-.08-.997zm-.12-1.495l-.08-.997-.997.08.08.997.997-.08zm13.557-1.085l.08.997.997-.08-.08-.997-.997.08zm1.115-8.581l1 .022.022-.999-.999-.022-.022 1zm-.032 1.5l-.022 1 1 .022.022-1-1-.022zM.084 81.278l-1-.022-.022.999.999.022.022-1zm.032-1.5l.022-1-1-.022-.022 1 1 .022zm15.166-4.543l.986.167.166-.986-.986-.167-.167.986zm-.25 1.479l-.167.986.986.167.167-.986-.986-.166zM.243 74.213l-.986-.166-.167.986.986.167.167-.986zm.556-3.293l-.267-.964-.613.17-.106.628.986.167zm14.469-4.002l.267.964.613-.17.106-.627-.986-.167zm.15-.887l.986.166.166-.986-.986-.167-.167.986zM2.008 63.761l-.986-.167-.167.986.986.167.167-.986zm.25-1.479l.167-.986-.986-.167-.167.986.986.166zm14.79 2.502l.986.166.167-.986-.986-.167-.167.986zm-.556 3.293l.267.964.614-.17.106-.628-.986-.167zM2.023 72.08l-.267-.964-.613.17-.106.627.986.167zm-.15.887l-.986-.167-.167.986.986.167.167-.986zm14.529-26.186l.379-.925h0l-.379.925zm4.051 4.039l.926-.378-.002-.004-.924.382zm-.041 5.798l-.925-.379h0l.925.379zm-10.141 4.229l-.379.925h0l.379-.925zm-4.318-4.126l-.919.394.002.004.917-.399zm.013-5.939l.925.379h0l-.925-.379zm3.147-3.724l.521.854h0l-.521-.854zm4.737-1.063l.925.379.509-1.242-1.335-.133-.099.995zm-.599 1.462l-.026 1 .689.018.261-.638-.925-.379zm-3.577.976l.533.846.005-.003-.538-.843zm-2.375 2.895l.925.379h0l-.925-.379zm-.003 4.754l.913-.407h0l-.913.407zm3.567 3.321l.379-.925h0l-.379.925zm4.86.112l.37.929.005-.002-.376-.927zm3.357-3.444l.925.379h0l-.925-.379zm.196-4.329l.949-.315-.002-.006-.947.322zm-2.71-3.251l.49-.872-.986-.555-.429 1.047.925.379zM14.677 53.1l-.379.925.925.38.379-.926-.925-.379zm-1.295-.531l-.925-.379-.379.925.925.379.379-.925zm2.465-6.015l.379-.925-.925-.379-.379.925.925.379zm8.735-7.021l.809.587.587-.809-.809-.587-.587.809zm-.916 1.263l-.587.809.809.587.587-.81-.809-.587zm-2.105-1.527l-.809-.587-.587.809.809.587.587-.809zm.916-1.263l.587-.809-.809-.587-.587.809.809.587zm17.939-8.536l-.214.977.501.11.382-.342-.668-.744zm-8.902-1.954l.214-.977-.501-.11-.382.342.668.744zm-1.369 1.229l-.668-.744-.744.668.668.744.744-.668zm4.943 5.507l.668.744.744-.668-.668-.744-.744.668zm-1.116 1.002l-.744.668.668.744.744-.668-.668-.744zM23.952 24.09l-.668-.744-.744.668.668.744.744-.668zm1.116-1.002l.744-.668-.668-.744-.744.668.668.744zm4.141 4.614l-.744.668.668.744.744-.668-.668-.744zm1.28-1.149l.668.744.35-.314-.018-.47-.999.039zm-.316-8.047l-.668-.744-.35.314.018.47.999-.039zm1.384-1.242l.999-.043-.09-2.116-1.576 1.415.668.744zm.375 8.773l-.999.043.033.767.749.166.217-.976zm9.866 2.191l.668.744 1.447-1.299-1.899-.422-.217.976zm8.045-6.665l.846-.533-.533-.846-.846.533.533.846zm.747 1.184l.533.846.846-.533-.533-.846-.846.533zm-7.901 4.981l-.846.533.533.846.846-.533-.533-.846zM34.69 15.041l-.533-.846-.846.533.534.846.846-.533zm7.63-4.811l.846-.533-.533-.846-.846.533.533.846zm.747 1.184l.533.846.846-.533-.534-.846-.846.533zm-6.361 4.011l-.533-.846-.846.533.534.846.846-.533zm2.56 4.06l-.846.533.533.846.846-.533-.533-.846zm6.091-3.84l.846-.533-.533-.846-.846.533.533.846zm.747 1.184l.533.846.846-.533-.533-.846-.846.534zm-6.091 3.84l-.533-.846-.846.533.533.846.846-.533zm3.2 5.075l-.846.534.533.846.846-.533-.533-.846zm17.018-8.634l.922-.386-.386-.922-.922.386.386.922zm.541 1.291l.386.922.923-.386-.386-.923-.922.386zm-8.616 3.606l-.922.386.386.922.922-.386-.386-.922zM46.362 8.171l-.386-.922-.923.386.386.923.922-.386zm8.321-3.482l.922-.386-.386-.922-.922.386.386.922zm.541 1.291l.386.922.923-.386-.386-.923-.922.386zm-6.937 2.903l-.386-.922-.923.386.386.923.922-.386zm1.854 4.427l-.922.386.386.922.922-.386-.386-.922zm6.642-2.78l.922-.386-.386-.922-.922.386.386.923zm.541 1.291l.386.922.923-.386-.386-.923-.922.386zm-6.642 2.78l-.386-.922-.923.386.386.923.922-.386zm2.318 5.534l-.922.386.386.922.922-.386-.386-.923zm12.767-8.943l.228.974h0l-.228-.974zm-3.486.815l-.228-.974-.974.228.228.974.974-.228zm1.322 5.647l.228.974.974-.228-.228-.974-.974.228zm-1.461.341l-.974.228.228.973.974-.227-.228-.974zM58.722 3.391l-.228-.974-.974.228.228.974.974-.228zM63.65 2.24l.228.974h0l-.228-.974zm3.992.381l-.495.869.006.004.489-.872zm2.115 2.895l.974-.228h0l-.974.228zM64.066 3.58l-.228-.974h0l.228.974zm-3.564.833l-.228-.974-.974.228.228.974.974-.228zm1.458 6.232l-.974.228.228.973.974-.227-.228-.974zm3.486-.815l-.228-.974h0l.228.974zm2.444-1.495l-.855-.518h0l.855.518zm.348-2.464l.974-.228h0l-.974.228zm-1.372-2l-.556.831.009.006.01.006.537-.844zm26.847 4.361l-.998-.054h0l.998.054zm-8.211 7.342l.055-.998h0l-.055.999zm-5.45-2.541l-.748.664.003.003.745-.667zm-1.916-5.653l-.998-.054h0l.998.054zm2.519-5.431l-.667-.745-.003.003.671.742zM86.348.017l-.055.999.055-.999zm5.45 2.542l-.748.664h0l.748-.664zM79.694 7.465l-.999-.054h0l.999.054zm12.461.682l-.999-.054h0l.999.054zm-1.51-4.649l.752-.659h0l-.752.659zm-8.947-.489l-.676-.737h0l.676.737zM95.563 16.4l-.271.963.963.271.27-.963-.963-.27zm-1.444-.406l-.963-.27-.27.962.963.271.271-.963zm4.056-14.441l.271-.963-.963-.271-.271.963.963.27zm3.216.904l.986-.163-.103-.628-.613-.172-.27.963zm2.445 14.815l-.986.163.103.628.613.172.27-.963zm.867.244l-.271.963.963.271.27-.963-.962-.27zm3.677-13.093l.271-.963-.963-.271-.271.963.963.27zm1.444.406l.963.27.27-.963-.962-.271-.271.963zm-4.056 14.441l-.271.963.963.271.271-.963-.963-.27zm-3.215-.904l-.987.163.104.628.612.172.271-.963zM100.106 3.55l.987-.163-.104-.628-.612-.172-.271.963zm-.866-.244l.271-.963-.963-.271-.271.963.963.27zm17.851 21.825l-.524.852h0l.524-.852zm-4.941-3.038l-.852-.524-.523.852.851.524.524-.852zm.775-1.261l.524-.852-.852-.524-.524.852.852.524zm5.026 3.09l-.524.852h0l.524-.852zm2.901.704l-.211-.977-.01.002.221.975zm2.012-1.44l.852.524h0l-.852-.524zm-1.646-4.58l-.523.852h0l.523-.852zm-1.533-.943l.524-.852h0l-.524.852zm-1.93-2.36l-.958.287.003.008.955-.295zm.397-2.785l.852.524h0l-.852-.524zm2.364-1.669l.178.984h.001l-.179-.984zm3.083.675l.524-.852h0l-.524.852zm5.18 3.184l.852.524.523-.852-.852-.524-.523.852zm-.775 1.261l-.524.852.852.524.524-.852-.852-.524zm-5.248-3.226l.524-.852h0l-.524.852zm-1.902-.418l.216.976.008-.002.008-.002-.232-.973zm-1.373 1.011l.852.524h0l-.852-.524zm1.013 3.088l.524-.852h0l-.524.852zm1.499.922l-.523.852h0l.523-.852zm2.21 6.641l.852.524h0l-.852-.524zm-2.935 2.14l-.217-.976-.008.002.225.974zm15.16 7.936l.504.864 1.166-.68-.991-.917-.679.734zm-9.233-.861l-.679.734h0l.679-.734zm-.41-10.981l.734.679h0l-.734-.679zm5.392-2.586l-.043-.999h-.005l.048.999zm5.602 2.133l.679-.734h0l-.679.734zm2.356 4.226l-.984.175.002.011.982-.186zm-.678 4.796l-.679.734.99.917.589-1.214-.9-.436zm-1.174-1.087l-.93-.369-.252.637.503.465.679-.734zm.368-3.666l-.982.19.002.009.98-.199zm-1.851-3.212l-.679.734h0l.679-.734zm-4.495-1.709l-.05-.999h-.006l.056.999zm-4.375 2.165l.734.679h0l-.734-.679zm-1.807 4.514l-1 .022v.006l1-.027zm2.05 4.351l.68-.734h0l-.68.734zm3.417 1.609l.109-.994-.006-.001-.103.995zm3.693-.751l.679-.734-.524-.485-.628.338.473.881zm6.129 6.866l.812-.584h0l-.812.584zm-2.219-3.084l.812-.584-.584-.812-.812.584.584.812zm-4.871 3.504l-.811.584.584.812.811-.584-.584-.812zm-.876-1.218l-.584-.812-.812.584.585.812.811-.584zm12.176-8.76l.812-.584-.584-.812-.812.584.584.812zm3.084 4.286l.812-.584h0l-.812.584zm1.186 3.804l-.994-.116-.001.008v.008l.995.101zm-1.797 3.017l.584.812h0l-.584-.812zm-5.082.059l.568-.823-.891-.615-.543.937.866.501zm-3.492 6.036l-.812.584.903 1.255.774-1.338-.865-.501zm-.958-1.331l-.866-.5-.323.56.377.525.812-.584zm3.314-5.735l.866.5.354-.612-.459-.538-.761.649zm5.751-4.951l.812-.584h0l-.812.584zm-2.266-3.149l.812-.584-.584-.812-.812.584.584.812zm-5.033 3.621l-.584-.812-.811.584.584.812.811-.584zm2.22 3.084l.812-.584h0l-.812.584zm4.635 1.1l-.584-.812h0l.584.812zm1.272-1.999l-.985-.172-.002.011.987.161zm4.587 20.644l.407.913h0l-.407-.913zm-10.281-3.961l-.914.407h0l.914-.407zm-.224-6.008l-.932-.362-.002.004.934.358zm4.158-4.281l.407.913h0l-.407-.913zm5.983-.233l.358-.934-.004-.002-.354.935zm4.316 4.186l-.913.407h0l.913-.407zm.224 6.008l-.932-.362h0l.932.362zm-9.888-8.536l.406.914h0l-.406-.914zm5.077 11.4l.407.914h0l-.407-.914zm3.45-3.462l.93.369h0l-.93-.369zm-6.697 15.388l.235.972.972-.235-.235-.972-.972.235zm-1.361.329l-.972.235.235.972.972-.235-.235-.972zm-1.457-6.026l-.235-.972-.972.235.235.972.972-.235zm14.581-3.522l.972-.235-.235-.972-.972.235.235.972zm.352 1.458l.235.972.972-.235-.235-.972-.972.235zm-13.22 3.193l-.234-.972-.973.235.235.972.972-.235zm2.188 13.306l.109.994.994-.109-.109-.994-.994.109zm-1.392.152l-.994.109.109.994.994-.109-.109-.994zm-.675-6.163l-.109-.994-.995.109.11.994.994-.109zm14.911-1.631l.994-.109-.109-.994-.994.109.109.994zm.163 1.491l.109.994.994-.109-.109-.994-.994.109zm-13.519 1.479l-.109-.994-.994.109.109.994.994-.109zm-.852 8.385l-1 .007.007 1 1-.007-.007-1zm-.011-1.5l-.007-1-1.001.007.008 1 1-.007zm14.999-.107l1-.007-.007-1-1 .007.007 1zm.012 1.5l.007 1 1-.007-.007-1-1 .007zm-15 5.122l-.99-.138-.138.99.99.138.138-.99zm.207-1.486l.138-.991-.991-.138-.138.991.991.138zm14.856 2.069l.991.138.138-.99-.991-.138-.138.99zm-.459 3.308l.294.956.608-.187.088-.63-.99-.138zm-14.346 4.423l-.295-.956-.608.188-.087.63.99.138zm-.124.892l-.99-.138-.138.99.99.138.138-.99zm13.47 1.876l.991.138.137-.99-.99-.138-.138.99zm-.206 1.486l-.138.99.99.138.138-.991-.99-.138zm-14.857-2.069l-.99-.138-.138.99.99.138.138-.99zm.46-3.308l-.295-.956-.608.188-.088.63.991.138zm14.345-4.423l.295.956.608-.188.088-.63-.991-.138zm.124-.892l.991.138.137-.99-.99-.138-.138.99zm-13.72 26.651l.352-.936h-.001l-.351.936zm-4.17-3.916l-.914.405.002.004.912-.409zm-.132-5.796l-.936-.352h0l.936.352zm10.01-4.53l.352-.936h0l-.352.936zm4.439 3.996l.907-.422-.002-.004-.905.426zm.165 5.936l-.936-.351h0l.936.351zM151.204 116l-.936-.352-.471 1.256 1.338.093.069-.997zm.556-1.48l-.005-1-.689.003-.243.646.937.351zm3.546-1.082l-.558-.83-.005.003.563.827zm2.288-2.965l.936.352h0l-.936-.352zm-3.804-7.966l.352-.936h0l-.352.936zm-4.861.033l-.398-.917-.006.002.404.915zm-3.253 3.543l.937.351h0l-.937-.351zm-.066 4.333l-.94.343.003.007.937-.35zm2.805 3.169l-.464.886 1.003.525.397-1.06-.936-.351zm1.75-4.663l.352-.936-.937-.351-.351.936.936.351zm1.311.493l.936.351.351-.936-.936-.352-.351.937zm-2.284 6.085l-.352.936.936.352.352-.937-.936-.351zm-7.662 11.533l-.825-.566-.565.825.825.565.565-.824zm.882-1.287l.565-.825-.825-.566-.565.825.825.566zm2.145 1.469l.824.566.566-.825-.825-.565-.565.824zm-.882 1.287l-.566.825.825.566.566-.825-.825-.566zM105.91 50.706l.972-.237h0l-.972.238zm-.86-1.313l-.61.792h0l.61-.792zm-2.418-.022l.564.826h0l-.564-.826zm-10.515 9.449l-.673-.74h0l.673.74zm-10.111 9.106v1-1zm-10.112-9.106l.673-.74h0l-.673.74zm-10.489-9.432l-.564.826h0l.564-.826zm-2.141-.142l-.462-.887h0l.462.887zm-1.214 1.821l-.993-.118h0l.993.118zm-.04 7.314l1-.006h0l-1 .006zm.283 7.049l-.858.514h0l.858-.514zM81.01 86.082l-.484.875h0l.484-.875zm1.817.109l.389.922h0l-.389-.921zm22.753-20.603l-.806-.592h0l.806.592zm.383-.521l.806.592.193-.263.001-.326-1-.003zm.021-6.987l1 .003h0l-1-.003zm-.145 21.004l.943-.333h0l-.943.333zm-1.498-1.424l-.216.976h0l.216-.976zm-.937-.001l-.15-.989h0l.15.989zM91.407 88.094l.673.74h0l-.673-.74zm-19.508-.641l-.673.74h0l.673-.74zm-10.452-9.446l.612-.79h0l-.612.79zm-1.224-.339l.003-1h0l-.003 1zm-1.259.359l-.61-.793h0l.61.793zm-.917 8.426h1 0-1zm0 7.24h-1v.32l.186.261.814-.581zm.319.448l-.814.581h0l.814-.581zm22.828 20.692l.389-.921h0l-.389.921zm1.619 0l-.388-.922v.001l.389.921zm22.829-20.692l.814.581h0l-.814-.581zm.319-.448l.814.581.185-.259.001-.318-1-.004zm.029-7.046l-1-.004h0l1 .004zm15.644 50.29l8.838 2.228.489-1.939-8.838-2.228-.489 1.939zm9.727 2.023l1.407-1.186-1.289-1.529-1.407 1.186 1.289 1.529zm1.527-2.595l-4.771-5.658-1.529 1.29 4.771 5.657 1.529-1.289zm-4.891-4.248l1.147-.967-1.289-1.529-1.147.967 1.289 1.529zm-.262-1.087l9.67 11.467 1.529-1.289-9.67-11.467-1.529 1.289zm9.79 10.058l-1.147.967 1.289 1.529 1.147-.967-1.289-1.529zm.262 1.087l-3.997-4.74-1.529 1.289 3.997 4.74 1.529-1.289zm-5.406-4.86l-1.315 1.109 1.289 1.529 1.315-1.109-1.289-1.529zm-1.67 1.882l.067 8.053 2-.017-.067-8.053-2 .017zm.422 7.28l-1.422 1.199 1.29 1.529 1.422-1.199-1.29-1.529zm.223 1.951l-.105-8.78-2 .024.105 8.78 2-.024zm-.858-9.737l-9.794-2.494-.494 1.939 9.795 2.493.493-1.938zm-9.396-.76l1.422-1.199-1.29-1.529-1.422 1.199 1.29 1.529zm-8.03 5.135l-.711-1.207-1.723 1.015.71 1.207 1.724-1.015zm-1.065.163l8.049-4.739-1.015-1.723-8.049 4.738 1.015 1.724zm6.68-5.093l7.611 12.925 1.724-1.015-7.612-12.925-1.723 1.015zm7.966 11.556l-7.773 4.576 1.014 1.723 7.773-4.576-1.014-1.723zm-6.404 4.93l-.711-1.206-1.723 1.015.71 1.206 1.724-1.015zm-1.065.163l6.48-3.815-1.014-1.723-6.481 3.815 1.015 1.723zm6.835-5.184l-2.436-4.136-1.723 1.015 2.435 4.136 1.724-1.015zm-3.805-4.491l-6.205 3.653 1.015 1.724 6.205-3.653-1.015-1.724zm-4.836 4.007l-.71-1.206-1.723 1.015.71 1.206 1.723-1.015zm-1.064.163l6.204-3.652-1.014-1.724-6.205 3.653 1.015 1.723zm6.559-5.022l-3.045-5.17-1.723 1.015 3.044 5.17 1.724-1.015zm-4.414-5.524l-6.756 3.977 1.014 1.724 6.757-3.978-1.015-1.723zm-15.75 8.575l-.502-1.307-1.867.717.502 1.307 1.867-.717zm-1.077-.015l8.72-3.346-.717-1.868-8.72 3.347.717 1.867zm7.428-3.922l5.378 14.003 1.867-.717-5.378-14.003-1.867.717zm5.953 12.711l-8.421 3.232.717 1.867 8.421-3.232-.717-1.867zm-7.129 3.807l-.502-1.307-1.867.718.502 1.306 1.867-.717zm-1.077-.014l7.02-2.695-.716-1.867-7.021 2.694.717 1.868zm7.596-3.987l-1.721-4.481-1.867.717 1.721 4.481 1.867-.717zm-3.013-5.056l-6.722 2.58.717 1.867 6.721-2.58-.716-1.867zm-5.43 3.155l-.502-1.307-1.867.717.502 1.307 1.867-.717zm-1.077-.015l6.721-2.58-.716-1.867-6.722 2.58.717 1.867zm7.297-3.872l-2.152-5.601-1.867.717 2.152 5.601 1.867-.717zm-3.444-6.176l-7.319 2.809.717 1.867 7.319-2.809-.717-1.867zm-12.664 10.507l3.508-.712-.398-1.96-3.508.712.398 1.96zm4.29-1.891l-1.155-5.684-1.96.399 1.155 5.683 1.96-.398zm-1.936-4.504l1.47-.299-.398-1.96-1.47.298.398 1.961zm.291-1.08l2.988 14.7 1.96-.399-2.988-14.699-1.96.398zm3.769 13.52l-4.959 1.007.398 1.96 4.958-1.006-.397-1.961zm-4.959 1.007c-1.407.286-2.459.116-3.26-.372l-1.041 1.708c1.343.818 2.943.98 4.698.624l-.398-1.96zm-3.266-.376c-.827-.496-1.347-1.232-1.564-2.297l-1.96.399c.32 1.574 1.153 2.808 2.495 3.613l1.029-1.715zm-1.564-2.297c-.224-1.102-.033-1.995.52-2.765l-1.625-1.166c-.91 1.268-1.178 2.74-.855 4.33l1.96-.399zm.52-2.765c.546-.761 1.449-1.328 2.856-1.614l-.398-1.96c-1.755.357-3.165 1.13-4.083 2.408l1.625 1.166zm4.331 6.046l3.587-.728-.398-1.96-3.587.728.398 1.96zm4.368-1.907l-1.275-6.272-1.96.398 1.275 6.272 1.96-.398zm-2.454-7.053l-3.508.712.398 1.96 3.508-.712-.398-1.96zm-3.508.712c-1.344.273-2.47.843-3.127 1.861l1.68 1.085c.253-.392.785-.77 1.845-.986l-.398-1.96zm-3.127 1.86c-.621.961-.793 2.049-.56 3.195l1.96-.398c-.139-.683-.031-1.23.28-1.711l-1.679-1.086zm-.56 3.195c.228 1.122.802 2.038 1.731 2.668l1.123-1.655c-.46-.312-.761-.756-.894-1.411l-1.96.398zm1.713 2.655c.992.707 2.24.808 3.569.538l-.398-1.96c-1.023.208-1.635.061-2.011-.207l-1.16 1.629zm-25.154-5.945c.162-1.943.938-3.473 2.327-4.657l-1.298-1.522c-1.81 1.544-2.817 3.571-3.022 6.013l1.993.166zm2.327-4.657c1.382-1.179 3.029-1.697 5.014-1.53l.167-1.993c-2.479-.208-4.663.451-6.48 2.001l1.298 1.522zm5.014-1.53c1.971.165 3.511.949 4.694 2.348l1.527-1.291c-1.545-1.828-3.587-2.843-6.054-3.05l-.167 1.993zm4.691 2.345c1.172 1.399 1.683 3.037 1.52 4.98l1.993.167c.204-2.441-.452-4.608-1.98-6.432l-1.533 1.285zm1.52 4.98c-.164 1.959-.941 3.495-2.328 4.678l1.298 1.522c1.812-1.546 2.818-3.58 3.023-6.033l-1.993-.167zm-2.325 4.675c-1.398 1.182-3.047 1.698-5.018 1.533l-.167 1.993c2.467.207 4.649-.454 6.476-1.999l-1.291-1.527zm-5.018 1.533c-1.986-.167-3.524-.952-4.691-2.345l-1.533 1.284c1.534 1.831 3.578 2.846 6.057 3.054l.167-1.993zm-4.691-2.345c-1.171-1.398-1.683-3.042-1.519-5.001l-1.993-.166c-.205 2.453.449 4.626 1.979 6.451l1.533-1.284zm12.472-3.826c.172-2.056-.35-3.878-1.601-5.392l-1.542 1.274c.887 1.074 1.282 2.366 1.15 3.951l1.993.167zm-1.601-5.392c-1.255-1.519-2.95-2.356-5.001-2.528l-.167 1.993c1.563.131 2.744.74 3.627 1.809l1.542-1.274zm-5.001-2.528c-2.051-.172-3.862.37-5.352 1.659l1.308 1.513c1.048-.907 2.314-1.31 3.877-1.179l.167-1.993zm-5.352 1.659c-1.485 1.285-2.303 2.995-2.475 5.05l1.993.167c.133-1.585.737-2.793 1.79-3.704l-1.308-1.513zm-2.475 5.05c-.173 2.067.347 3.896 1.599 5.412l1.542-1.274c-.886-1.073-1.282-2.371-1.148-3.971l-1.993-.167zm1.599 5.412c1.255 1.519 2.95 2.356 5.001 2.528l.167-1.993c-1.563-.131-2.744-.74-3.627-1.809l-1.542 1.274zm5.001 2.528c2.051.172 3.862-.371 5.352-1.659l-1.308-1.513c-1.048.906-2.314 1.31-3.877 1.179l-.167 1.993zm5.352-1.659c1.487-1.286 2.303-3.004 2.476-5.07l-1.993-.167c-.134 1.601-.74 2.814-1.792 3.724l1.308 1.513zm-14.564-13.696l1.431.448.598-1.908-1.431-.449-.598 1.909zm.776-.805l-4.481 14.315 1.909.598 4.481-14.315-1.909-.598zm-3.228 13.66l-3.187-.999-.598 1.909 3.187.998.598-1.908zm-2.495-.178l-2.006-14.881-1.982.268 2.007 14.88 1.982-.267zm-2.699-15.701l-.859-.269-.598 1.908.859.269.598-1.908zm-2.112.386l-4.063 12.979 1.909.598 4.063-12.979-1.909-.598zm-2.809 12.324l-1.431-.449-.598 1.909 1.431.448.598-1.908zm-.776.804l4.481-14.315-1.909-.597-4.481 14.315 1.909.597zm3.228-13.659l3.187.998.598-1.908-3.187-.999-.598 1.909zm2.495.178l2.006 14.88 1.982-.267-2.007-14.881-1.982.268zm2.699 15.701l.859.269.598-1.909-.859-.269-.598 1.909zm2.112-.387l4.063-12.979-1.909-.597-4.063 12.979 1.909.597zm-18.406-21.75l4.846 3.187 1.099-1.671-4.846-3.187-1.099 1.671zm4.56 1.802l-.813 1.237 1.671 1.099.813-1.237-1.671-1.099zm.572.951l-4.93-3.242-1.099 1.671 4.93 3.242 1.099-1.671zm-4.93-3.242c-1.18-.776-2.407-1.175-3.62-.938l.384 1.963c.509-.099 1.2.03 2.137.646l1.099-1.671zm-3.609-.94a4.03 4.03 0 0 0-2.709 1.812l1.671 1.099a2.03 2.03 0 0 1 1.401-.944l-.363-1.967zm-2.709 1.812c-.678 1.031-.942 2.155-.574 3.286.351 1.079 1.218 1.972 2.365 2.727l1.099-1.671c-.969-.637-1.411-1.211-1.562-1.675-.134-.412-.092-.906.343-1.568l-1.671-1.099zm1.791 6.013l1.504.989 1.099-1.671-1.504-.989-1.099 1.671zm1.504.989c.798.525 1.247 1.142 1.442 1.848l1.928-.531c-.343-1.243-1.131-2.238-2.271-2.988l-1.099 1.671zm1.44 1.84c.18.676.081 1.308-.351 1.964l1.671 1.099c.726-1.104.947-2.319.612-3.578l-1.933.515zm-.351 1.964c-.457.696-1.021 1.052-1.726 1.157l.295 1.978c1.312-.196 2.357-.904 3.102-2.036l-1.671-1.099zm-1.727 1.157c-.743.112-1.518-.059-2.363-.615l-1.099 1.671c1.183.778 2.448 1.119 3.759.922l-.297-1.978zm-2.363-.615l-5.08-3.341-1.099 1.672 5.08 3.34 1.099-1.671zm-4.794-1.956l.813-1.236-1.671-1.099-.813 1.237 1.671 1.098zm-.572-.95l5.147 3.384 1.099-1.671-5.147-3.384-1.099 1.671zm5.147 3.384c.815.537 1.714.812 2.641.62l-.405-1.958c-.255.053-.616.01-1.137-.333l-1.099 1.671zm2.625.624c.872-.166 1.564-.661 2.052-1.402l-1.671-1.099c-.216.328-.458.48-.754.536l.374 1.965zm2.052-1.402c.477-.726.629-1.543.426-2.388l-1.945.467c.07.293.03.545-.153.822l1.671 1.099zm.426-2.388c-.215-.895-.829-1.587-1.631-2.114l-1.099 1.671c.535.352.726.668.785.91l1.945-.467zm-1.631-2.114l-1.471-.967-1.099 1.671 1.471.967 1.099-1.671zm-1.471-.967c-1.373-.903-2.032-1.807-2.231-2.668l-1.949.45c.357 1.547 1.468 2.828 3.081 3.889l1.099-1.671zm-2.231-2.668c-.213-.924-.058-1.788.511-2.653l-1.671-1.098c-.853 1.297-1.13 2.717-.788 4.201l1.949-.45zm.511-2.653c.6-.912 1.372-1.429 2.351-1.616l-.376-1.965c-1.54.295-2.767 1.144-3.647 2.483l1.671 1.098zm2.358-1.618c.898-.178 2.011.064 3.401.977l1.099-1.671c-1.641-1.079-3.291-1.585-4.89-1.267l.39 1.961zm-14.819-8.7c1.402-.761 2.808-1.045 4.241-.884l.223-1.988c-1.87-.209-3.684.173-5.418 1.114l.954 1.758zm4.241-.884c1.413.158 2.667.765 3.782 1.863l1.403-1.425c-1.412-1.39-3.073-2.214-4.963-2.426l-.223 1.988zm3.782 1.863c1.398 1.377 2.072 2.953 2.077 4.774l2-.007c-.008-2.384-.918-4.463-2.674-6.192l-1.403 1.425zm2.077 4.774c.006 1.825-.649 3.411-2.018 4.8l1.425 1.403c1.719-1.746 2.6-3.83 2.593-6.21l-2 .007zm-2.018 4.8c-1.381 1.402-2.958 2.09-4.773 2.12l.034 2c2.371-.04 4.439-.965 6.164-2.717l-1.425-1.403zm-4.768 2.12c-1.819.022-3.41-.63-4.819-2.018l-1.403 1.425c1.764 1.737 3.861 2.622 6.247 2.593l-.024-2zm-4.819-2.018c-1.098-1.081-1.732-2.317-1.937-3.728l-1.979.289c.272 1.866 1.122 3.495 2.513 4.864l1.403-1.425zm-1.939-3.739c-.223-1.415.01-2.79.724-4.153l-1.772-.928c-.903 1.723-1.221 3.53-.928 5.392l1.976-.311zm-.864-3.904l1.14 1.122 1.403-1.425-1.14-1.123-1.403 1.426zm.924.013c-.599 1.383-.791 2.797-.549 4.217l1.971-.336c-.172-1.009-.044-2.03.413-3.087l-1.836-.794zm-.55 4.209c.235 1.454.931 2.732 2.036 3.82l1.403-1.425c-.833-.82-1.304-1.721-1.465-2.715l-1.974.32zm2.036 3.82c1.459 1.437 3.193 2.172 5.161 2.134l-.038-1.999c-1.388.026-2.614-.471-3.72-1.56l-1.403 1.425zm5.167 2.134c1.955-.048 3.675-.851 5.127-2.326l-1.425-1.404c-1.129 1.147-2.37 1.697-3.751 1.731l.049 1.999zm5.127-2.326c1.445-1.468 2.215-3.195 2.233-5.149l-2-.018c-.013 1.384-.54 2.627-1.658 3.763l1.425 1.404zm2.233-5.154c.007-1.969-.755-3.692-2.213-5.128l-1.403 1.425c1.106 1.089 1.621 2.307 1.617 3.696l2 .007zm-2.213-5.128c-1.127-1.11-2.443-1.791-3.933-1.992l-.268 1.982c1.02.138 1.948.599 2.797 1.435l1.403-1.425zm-3.927-1.991c-1.477-.209-2.919.044-4.3.731l.892 1.791c1.042-.519 2.077-.691 3.129-.542l.28-1.98zm-3.153.914l-1.112-1.094-1.403 1.425 1.111 1.094 1.403-1.425zm-7.352-5.743l2.124 3.151 1.658-1.118-2.124-3.151-1.658 1.118zm3.512 3.421l4.975-3.353-1.118-1.659-4.975 3.354 1.118 1.658zm3.587-3.624l.838 1.244 1.658-1.118-.838-1.244-1.658 1.118zm1.109-.144l-12.439 8.383 1.118 1.659 12.439-8.384-1.118-1.658zm-11.05 8.654l-2.951-4.378-1.658 1.118 2.951 4.378 1.658-1.118zm-2.951-4.378c-.796-1.181-1.044-2.212-.908-3.134l-1.979-.292c-.228 1.543.235 3.071 1.228 4.544l1.658-1.118zm-.906-3.149c.124-.933.582-1.674 1.455-2.262l-1.118-1.659c-1.316.887-2.116 2.121-2.32 3.659l1.983.262zm1.455-2.262c.655-.442 1.308-.638 1.977-.63l.023-2c-1.113-.013-2.159.325-3.118.971l1.118 1.659zm1.977-.63c.659.007 1.304.224 1.953.702l1.186-1.611c-.947-.697-1.992-1.078-3.116-1.091l-.023 2zm3.396.424l3.675-5.926-1.7-1.054-3.675 5.926 1.7 1.054zm1.996-5.894l.917 1.36 1.658-1.118-.917-1.36-1.658 1.118zm.896.274l-3.488 5.631 1.7 1.053 3.488-5.631-1.7-1.053zm-3.418 6.784l.397.524 1.658-1.118a10.53 10.53 0 0 0-.496-.658l-1.56 1.252zm-5.95 4.705l2.169 3.217 1.658-1.118-2.169-3.217-1.658 1.118zm3.557 3.488l5.141-3.465-1.118-1.659-5.141 3.465 1.118 1.659zm5.412-4.854l-2.124-3.151-1.658 1.118 2.124 3.151 1.658-1.118zm-2.124-3.151c-.763-1.132-1.712-1.957-2.888-2.186l-.382 1.963c.452.088 1.004.44 1.612 1.341l1.658-1.118zm-2.888-2.186c-1.1-.214-2.15.035-3.099.675l1.118 1.658c.554-.373 1.071-.473 1.599-.37l.382-1.963zm-3.099.675c-.935.63-1.543 1.505-1.755 2.597l1.963.382c.105-.537.385-.967.91-1.321l-1.118-1.658zm-1.753 2.586c-.241 1.166.15 2.335.896 3.442l1.658-1.118c-.58-.861-.687-1.478-.596-1.919l-1.959-.405zm-2.55-19.662c1.804-.739 3.52-.745 5.207-.047l.764-1.849c-2.199-.909-4.462-.883-6.73.046l.758 1.85zm5.207-.047c1.679.694 2.89 1.925 3.646 3.768l1.851-.758c-.944-2.302-2.526-3.947-4.733-4.859l-.764 1.849zm3.646 3.768c.75 1.83.754 3.558.047 5.247l1.845.772c.924-2.207.898-4.487-.041-6.777l-1.851.758zm.049 5.243c-.712 1.681-1.938 2.88-3.743 3.62l.758 1.85c2.267-.929 3.897-2.499 4.826-4.69l-1.841-.78zm-3.743 3.62c-1.818.745-3.54.751-5.226.055l-.764 1.848c2.201.91 4.47.881 6.748-.053l-.758-1.85zm-5.222.056c-1.689-.707-2.9-1.94-3.65-3.77l-1.851.759c.939 2.29 2.521 3.932 4.729 4.856l.772-1.845zm-3.65-3.77c-.756-1.844-.757-3.57-.049-5.243l-1.841-.78c-.932 2.198-.904 4.48.039 6.782l1.851-.759zm-.049-5.243c.712-1.679 1.943-2.882 3.761-3.627l-.758-1.85c-2.278.933-3.915 2.505-4.844 4.697l1.841.78zm9.087 9.364c1.909-.782 3.294-2.076 4.072-3.879l-1.836-.793c-.552 1.279-1.523 2.218-2.995 2.821l.758 1.851zm4.072-3.879c.781-1.809.754-3.699-.027-5.603l-1.851.758c.595 1.451.59 2.78.041 4.052l1.836.793zm-.027-5.603c-.781-1.905-2.088-3.27-3.915-4.01l-.751 1.853c1.285.521 2.221 1.464 2.816 2.915l1.851-.758zm-3.915-4.01c-1.82-.738-3.715-.688-5.623.094l.758 1.851c1.472-.604 2.823-.615 4.114-.092l.751-1.853zm-5.623.094c-1.919.786-3.311 2.081-4.091 3.886l1.836.793c.551-1.276 1.527-2.219 3.013-2.828l-.758-1.851zm-4.091 3.886c-.781 1.809-.754 3.699.027 5.604l1.851-.759c-.595-1.451-.59-2.78-.041-4.052l-1.836-.793zm.027 5.604c.781 1.904 2.088 3.269 3.915 4.01l.752-1.854c-1.285-.521-2.221-1.464-2.816-2.915l-1.851.759zm3.915 4.01c1.822.738 3.723.684 5.642-.102l-.758-1.851c-1.486.609-2.843.622-4.132.099l-.751 1.854zm4.414-23.297l1.37-.289-.412-1.957-1.37.289.412 1.957zm.185-1.061l1.28 6.067 1.957-.413-1.28-6.066-1.957.413zm2.052 4.882L2.19 100.598l.412 1.958 14.678-3.092-.412-1.957zm-13.493 3.864l-.31-1.468-1.957.413.31 1.467 1.957-.412zm-1.082-.283l13.308-2.803-.412-1.957-13.308 2.803.412 1.957zm14.08-3.988l-.97-4.599-1.957.413.97 4.599 1.957-.413zM13.702 85l1.396-.112-.159-1.994-1.396.112.159 1.994zm.319-1.029l.496 6.18 1.993-.16-.496-6.18-1.994.16zm1.413 5.103L.482 90.271l.159 1.994 14.952-1.196-.159-1.994zM1.559 91.188l-.12-1.495-1.994.16.12 1.495 1.994-.16zM.522 90.77l13.557-1.084-.159-1.994L.362 88.776.522 90.77zm14.474-2.161l-.376-4.685-1.994.16.376 4.685 1.994-.16zm-.882-8.522l-.033 1.5 2 .043.032-1.5-1.999-.043zm.989.522L.106 80.279l-.044 2 14.996.329.044-1.999zM1.084 81.3l.032-1.5-2-.043-.032 1.5 2 .043zm-.989-.521l14.996.329.044-1.999-14.996-.329-.044 2zm14.201-5.709l-.25 1.479 1.972.333.25-1.479-1.972-.333zm.903.66L.41 73.227.076 75.199l14.79 2.502.334-1.972zm-13.971-1.35l.556-3.293-1.972-.333-.556 3.293 1.972.333zm-.163-2.496l14.469-4.002-.533-1.928L.533 69.956l.533 1.928zm15.188-4.8l.15-.888-1.972-.333-.15.888 1.972.333zm-.669-2.04L2.175 62.775l-.334 1.972 13.409 2.269.334-1.972zm-12.59-1.116l.25-1.479-1.972-.333-.25 1.479 1.972.333zm-.903-.66l14.79 2.502.334-1.972-14.79-2.502-.334 1.972zm13.971 1.35l-.556 3.293 1.972.333.556-3.293-1.972-.333zm.163 2.496L1.756 71.116l.533 1.928 14.469-4.002-.533-1.928zm-15.188 4.8l-.15.887 1.972.333.15-.887-1.972-.333zm.669 2.04l13.409 2.269.334-1.972L2.04 71.981l-.334 1.972zm14.316-26.247c1.665.683 2.82 1.834 3.506 3.495l1.848-.764c-.891-2.155-2.437-3.697-4.596-4.582l-.759 1.851zm3.505 3.491c.674 1.652.667 3.313-.041 5.041l1.851.758c.9-2.196.921-4.4.042-6.554l-1.852.755zm-.041 5.041c-.744 1.816-1.948 3.036-3.63 3.732l.764 1.848c2.204-.911 3.782-2.541 4.717-4.822l-1.851-.758zm-3.63 3.732c-1.687.697-3.402.691-5.206-.048l-.759 1.85c2.267.929 4.53.955 6.729.046l-.764-1.848zm-5.206-.048c-1.823-.748-3.06-1.943-3.78-3.6l-1.834.797c.941 2.166 2.583 3.721 4.856 4.653l.759-1.85zm-3.778-3.596c-.714-1.663-.719-3.364.019-5.166l-1.851-.758c-.93 2.27-.944 4.529-.006 6.713l1.838-.789zm.019-5.166c.579-1.412 1.489-2.485 2.743-3.25l-1.042-1.707c-1.628.993-2.816 2.404-3.552 4.199l1.851.758zm2.743-3.25c1.251-.763 2.611-1.071 4.117-.921l.198-1.99c-1.928-.192-3.725.209-5.356 1.204l1.042 1.707zm3.29-2.295l-.599 1.462 1.851.758.599-1.462-1.851-.758zm.352.841c-1.504-.038-2.894.338-4.14 1.133l1.075 1.686c.899-.574 1.894-.848 3.014-.819l.051-1.999zm-4.135 1.129c-1.258.792-2.18 1.927-2.768 3.363l1.851.758c.443-1.081 1.105-1.876 1.982-2.428l-1.065-1.693zm-2.768 3.363c-.772 1.885-.787 3.754.009 5.54l1.827-.814c-.555-1.246-.568-2.546.015-3.968l-1.851-.758zm.009 5.54c.792 1.778 2.189 3.056 4.101 3.84l.759-1.85c-1.493-.612-2.474-1.548-3.033-2.803l-1.827.814zm4.101 3.84c1.905.781 3.795.84 5.61.116l-.741-1.858c-1.285.513-2.636.496-4.111-.108l-.759 1.85zm5.615.114c1.824-.739 3.13-2.097 3.906-3.992l-1.851-.758c-.589 1.437-1.521 2.375-2.807 2.897l.751 1.853zm3.906-3.992c.686-1.675.771-3.364.22-5.023l-1.898.63c.391 1.176.345 2.373-.172 3.635l1.851.758zm.218-5.03c-.563-1.659-1.631-2.937-3.166-3.801l-.98 1.743a4.73 4.73 0 0 1 2.253 2.701l1.894-.643zm-4.582-3.308l-1.888 4.608 1.851.758 1.888-4.608-1.851-.758zm-.584 4.062l-1.295-.531-.759 1.851 1.295.531.759-1.851zm-.749.773l2.464-6.015-1.851-.758-2.465 6.015 1.851.758zm1.16-5.469l.555.228.759-1.851-.555-.228-.759 1.85zm8.305-8.534l-.916 1.263 1.619 1.174.916-1.263-1.619-1.174zm.481 1.04l-2.105-1.527-1.174 1.619 2.105 1.527 1.174-1.619zm-1.882-.13l.916-1.263-1.619-1.174-.916 1.263 1.619 1.174zm-.481-1.041l2.104 1.527 1.174-1.619-2.105-1.527-1.174 1.619zm18.74-10.322l-8.902-1.954-.429 1.953 8.902 1.954.429-1.953zm-9.784-1.722l-1.369 1.229 1.336 1.489 1.369-1.229-1.336-1.489zM29.4 29.413l4.942 5.507 1.489-1.336-4.942-5.507-1.488 1.336zm5.019 4.095l-1.116 1.002 1.336 1.489 1.116-1.002-1.336-1.488zm.296 1.078L24.696 23.423l-1.489 1.336 10.019 11.164 1.489-1.336zM24.62 24.835l1.116-1.002-1.336-1.488-1.116 1.002 1.336 1.488zm-.296-1.078l4.141 4.614 1.489-1.336-4.141-4.614-1.488 1.336zm5.553 4.691l1.28-1.149-1.336-1.489-1.28 1.149 1.336 1.488zm1.611-1.932l-.316-8.047-1.998.078.316 8.047 1.998-.078zm-.647-7.264l1.384-1.242-1.336-1.489-1.384 1.242 1.336 1.489zm-.283-1.944l.375 8.773 1.998-.086-.375-8.773-1.998.085zm1.158 9.706l9.866 2.191.434-1.952-9.867-2.191-.433 1.953zm9.415.47l-1.384 1.242 1.336 1.489 1.384-1.242-1.336-1.489zm7.867-5.387l.747 1.184 1.692-1.067-.747-1.184-1.692 1.067zm1.059-.195l-7.901 4.981 1.067 1.692 7.901-4.981-1.067-1.692zm-6.522 5.294l-8.001-12.688-1.692 1.067 8.001 12.688 1.692-1.067zm-8.314-11.308l7.63-4.81-1.067-1.692-7.63 4.811 1.067 1.692zm6.251-5.123l.747 1.184 1.692-1.067-.747-1.184-1.692 1.067zm1.059-.195l-6.361 4.011 1.067 1.692L43.6 12.26l-1.067-1.692zm-6.674 5.39l2.56 4.06 1.692-1.067-2.561-4.06-1.692 1.067zm3.94 4.373l6.091-3.84-1.067-1.692-6.091 3.84 1.067 1.692zm4.711-4.152l.747 1.184 1.692-1.067-.747-1.184-1.692 1.067zm1.059-.195l-6.091 3.84 1.067 1.692 6.091-3.84-1.067-1.692zm-6.403 5.219l3.201 5.075 1.692-1.067-3.201-5.075-1.692 1.067zm4.58 5.388l6.632-4.181-1.067-1.692-6.632 4.181 1.067 1.692zm15.562-9.094l.541 1.291 1.845-.772-.541-1.291-1.845.772zm1.077-.017l-8.616 3.606.772 1.845 8.616-3.606-.772-1.845zm-7.307 4.142L47.284 7.785l-1.845.773 5.794 13.836 1.845-.773zm-6.33-12.527l8.321-3.482-.772-1.845-8.321 3.482.772 1.845zm7.012-4.019l.541 1.291 1.845-.772-.541-1.291-1.845.773zm1.077-.017L47.9 7.961l.772 1.845 6.937-2.903-.772-1.845zM47.364 9.27l1.854 4.427 1.845-.772-1.854-4.428-1.845.773zm3.162 4.964l6.642-2.78-.772-1.845-6.642 2.78.772 1.845zm5.333-3.316l.541 1.291 1.845-.773-.541-1.291-1.845.772zm1.077-.017l-6.642 2.78.772 1.845 6.642-2.78-.772-1.845zm-7.178 4.088l2.318 5.534 1.845-.773-2.318-5.534-1.845.773zm3.626 6.071l7.232-3.027-.772-1.845-7.232 3.027.772 1.845zm12.153-10.84l-3.486.815.455 1.947 3.486-.815-.455-1.947zm-4.232 2.016l1.322 5.647 1.947-.456-1.322-5.647-1.947.456zm2.068 4.446l-1.461.341.455 1.948 1.461-.341-.455-1.948zm-.259 1.087L59.696 3.164l-1.947.456 3.418 14.605 1.947-.456zM58.95 4.365l4.927-1.152-.455-1.947-4.927 1.152.455 1.947zm4.927-1.152c1.398-.327 2.455-.188 3.269.276l.99-1.738c-1.367-.779-2.971-.894-4.715-.486l.455 1.947zm3.275.28c.841.472 1.383 1.192 1.63 2.25l1.947-.456c-.366-1.565-1.234-2.774-2.6-3.539l-.978 1.745zm1.63 2.25c.256 1.095.092 1.993-.438 2.779l1.658 1.118c.873-1.294 1.097-2.773.727-4.353l-1.947.456zm-.438 2.779c-.524.777-1.409 1.37-2.807 1.697l.455 1.947c1.744-.408 3.131-1.222 4.01-2.526l-1.658-1.118zm-4.507-5.916l-3.564.833.455 1.948 3.564-.833-.455-1.948zm-4.31 2.035l1.458 6.232 1.947-.456-1.458-6.232-1.947.456zm2.66 6.978l3.486-.815-.455-1.947-3.486.815.455 1.948zm3.486-.815c1.335-.312 2.444-.915 3.071-1.951l-1.711-1.036c-.242.399-.762.793-1.816 1.04l.455 1.947zm3.071-1.951c.593-.978.733-2.071.466-3.21l-1.947.456c.159.679.067 1.228-.229 1.718l1.711 1.036zm.466-3.21c-.261-1.115-.861-2.013-1.809-2.616l-1.074 1.687c.469.298.783.734.935 1.385l1.947-.456zm-1.79-2.604c-1.012-.677-2.263-.741-3.583-.433l.455 1.948c1.017-.238 1.633-.109 2.016.148l1.112-1.663zm25.293 5.138c-.106 1.947-.837 3.499-2.19 4.723l1.342 1.483c1.764-1.596 2.712-3.651 2.845-6.098l-1.997-.109zm-2.19 4.723c-1.347 1.219-2.978 1.784-4.968 1.675l-.109 1.997c2.484.136 4.648-.587 6.419-2.189l-1.342-1.483zm-4.968 1.675c-1.975-.108-3.537-.847-4.76-2.21L79.307 13.7c1.597 1.782 3.668 2.737 6.14 2.872l.109-1.997zm-4.757-2.207c-1.213-1.365-1.771-2.987-1.665-4.935l-1.997-.109c-.133 2.446.586 4.593 2.167 6.372l1.495-1.328zm-1.665-4.935c.107-1.962.839-3.52 2.191-4.743l-1.342-1.483c-1.766 1.597-2.713 3.66-2.846 6.118l1.997.109zm2.188-4.74c1.363-1.222 2.997-1.786 4.971-1.678l.109-1.997c-2.472-.135-4.634.589-6.416 2.186l1.335 1.489zm4.971-1.678c1.99.109 3.55.849 4.757 2.207l1.495-1.328C90.96.109 88.887-.846 86.403-.982l-.109 1.997zm4.757 2.207c1.212 1.364 1.77 2.992 1.664 4.955l1.997.109c.134-2.458-.584-4.611-2.166-6.392l-1.495 1.328zM78.695 7.41c-.112 2.06.463 3.866 1.757 5.343l1.504-1.318c-.918-1.048-1.351-2.328-1.264-3.916l-1.997-.109zm1.757 5.343c1.299 1.482 3.018 2.269 5.073 2.382l.109-1.997c-1.566-.086-2.764-.66-3.678-1.703l-1.504 1.318zm5.073 2.382c2.055.112 3.849-.482 5.302-1.814l-1.352-1.474c-1.021.937-2.275 1.377-3.841 1.291l-.109 1.997zm5.302-1.814c1.447-1.327 2.215-3.06 2.327-5.12l-1.997-.109c-.086 1.588-.655 2.813-1.681 3.754l1.352 1.474zm2.327-5.12c.113-2.071-.46-3.884-1.756-5.363l-1.504 1.318c.917 1.046 1.35 2.332 1.263 3.936l1.997.109zm-1.756-5.363C90.099 1.356 88.38.569 86.325.456l-.109 1.997c1.566.086 2.764.66 3.678 1.703l1.504-1.318zM86.325.456c-2.055-.112-3.849.482-5.302 1.814l1.352 1.474c1.021-.937 2.275-1.377 3.841-1.291l.109-1.997zM81.023 2.27c-1.449 1.329-2.215 3.069-2.328 5.14l1.997.109c.087-1.604.658-2.835 1.683-3.774L81.023 2.27zm14.81 13.167l-1.444-.406-.541 1.925 1.444.406.541-1.925zm-.752.827l4.056-14.441-1.926-.541-4.056 14.441 1.925.541zm2.823-13.749l3.215.904.541-1.925L98.445.59l-.541 1.925zm2.499.104l2.446 14.815 1.973-.326-2.446-14.815-1.973.326zm3.162 15.614l.866.243.541-1.925-.866-.244-.541 1.925zm2.099-.449l3.678-13.093-1.926-.541-3.677 13.093 1.925.541zm2.444-12.401l1.444.406.542-1.925-1.444-.406-.542 1.925zm.752-.827l-4.056 14.441 1.926.541 4.056-14.441-1.926-.541zm-2.822 13.749l-3.216-.904-.541 1.925 3.215.904.542-1.925zm-2.5-.104l-2.445-14.815-1.973.326 2.445 14.815 1.973-.326zm-3.161-15.614l-.866-.244-.541 1.925.866.244.541-1.925zm-2.1.449L94.6 16.13l1.925.541 3.678-13.093-1.926-.541zm19.338 21.243l-4.941-3.038-1.048 1.704 4.941 3.038 1.048-1.704zm-4.613-1.662l.775-1.261-1.704-1.047-.775 1.261 1.704 1.047zm-.601-.933l5.026 3.09 1.048-1.704-5.026-3.09-1.048 1.704zm5.026 3.09c1.203.739 2.442 1.101 3.647.827l-.443-1.95c-.506.115-1.201.007-2.156-.58l-1.048 1.704zm3.637.829c1.139-.246 2.038-.895 2.652-1.893l-1.704-1.047c-.336.546-.778.858-1.371.986l.423 1.955zm2.652-1.893c.646-1.051.876-2.183.474-3.302-.384-1.068-1.278-1.935-2.448-2.654l-1.047 1.704c.988.607 1.447 1.168 1.612 1.626.147.407.12.903-.295 1.578l1.704 1.047zm-1.974-5.956l-1.533-.943-1.048 1.704 1.534.943 1.047-1.704zm-1.533-.943c-.814-.5-1.282-1.103-1.498-1.804l-1.911.59c.38 1.232 1.199 2.202 2.361 2.917l1.048-1.704zm-1.496-1.795c-.2-.67-.12-1.305.291-1.974l-1.704-1.047c-.692 1.126-.876 2.347-.503 3.595l1.916-.573zm.291-1.974c.436-.709.988-1.082 1.69-1.209l-.356-1.968c-1.305.236-2.329.975-3.038 2.13l1.704 1.047zm1.691-1.209c.739-.134 1.519.013 2.381.543l1.047-1.704c-1.206-.741-2.481-1.044-3.786-.807l.358 1.968zm2.381.543l5.179 3.184 1.047-1.704-5.179-3.184-1.047 1.704zm4.851 1.809l-.775 1.261 1.704 1.047.775-1.261-1.704-1.047zm.6.933l-5.247-3.226-1.048 1.704 5.248 3.226 1.047-1.704zm-5.247-3.226c-.831-.511-1.738-.759-2.659-.539l.465 1.945c.253-.06.615-.029 1.146.298l1.048-1.704zm-2.643-.543c-.866.192-1.543.707-2.008 1.463l1.704 1.047c.206-.335.444-.493.737-.558l-.433-1.952zm-2.008 1.463c-.455.74-.582 1.562-.353 2.4l1.93-.527c-.08-.29-.047-.543.127-.826l-1.704-1.047zm-.353 2.4c.242.888.877 1.561 1.694 2.063l1.048-1.704c-.546-.336-.747-.645-.812-.886l-1.93.527zm1.694 2.063l1.5.922 1.047-1.704-1.499-.922-1.048 1.704zm1.5.922c1.4.861 2.086 1.744 2.311 2.598l1.934-.509c-.404-1.536-1.554-2.783-3.198-3.793l-1.047 1.704zm2.311 2.598c.241.917.112 1.786-.43 2.667l1.704 1.047c.813-1.322 1.047-2.75.66-4.223l-1.934.509zm-.43 2.667c-.571.93-1.327 1.47-2.3 1.688l.435 1.952c1.53-.341 2.73-1.228 3.569-2.592l-1.704-1.047zm-2.308 1.689c-.892.206-2.012-.002-3.428-.873l-1.048 1.704c1.673 1.029 3.338 1.484 4.926 1.118l-.45-1.949zm14.881 8.046c-1.378.804-2.774 1.131-4.212 1.015l-.161 1.993c1.876.152 3.677-.286 5.381-1.281l-1.008-1.727zm-4.212 1.015c-1.417-.115-2.689-.682-3.837-1.745l-1.359 1.468c1.454 1.346 3.14 2.118 5.035 2.271l.161-1.993zm-3.837-1.745c-1.44-1.333-2.162-2.888-2.224-4.707l-1.999.068c.081 2.383 1.055 4.433 2.864 6.107l1.359-1.468zm-2.224-4.707c-.063-1.825.544-3.429 1.868-4.86l-1.467-1.358c-1.665 1.798-2.481 3.909-2.4 6.287l1.999-.068zm1.868-4.86c1.337-1.444 2.893-2.18 4.705-2.266l-.095-1.998c-2.369.113-4.407 1.101-6.077 2.906l1.467 1.358zm4.701-2.266c1.817-.078 3.428.524 4.879 1.868l1.359-1.468c-1.817-1.682-3.94-2.501-6.324-2.398l.086 1.998zm4.879 1.868c1.131 1.047 1.803 2.263 2.052 3.666l1.969-.349c-.33-1.857-1.23-3.459-2.662-4.785l-1.359 1.468zm2.054 3.678c.266 1.408.076 2.789-.595 4.173l1.799.873c.849-1.75 1.111-3.566.761-5.418l-1.965.372zm.984 3.876l-1.175-1.087-1.358 1.468 1.174 1.087 1.359-1.468zm-.924.015c.555-1.401.704-2.82.418-4.233l-1.96.397c.203 1.003.107 2.028-.318 3.098l1.86.737zm.42-4.224c-.28-1.447-1.015-2.702-2.153-3.756l-1.359 1.468c.858.794 1.357 1.68 1.548 2.668l1.964-.38zm-2.153-3.756c-1.503-1.391-3.259-2.072-5.225-1.974l.099 1.998c1.387-.069 2.628.389 3.767 1.444l1.359-1.468zm-5.231-1.973c-1.953.109-3.646.964-5.053 2.484l1.468 1.358c1.093-1.181 2.316-1.768 3.696-1.845l-.111-1.997zm-5.053 2.484c-1.398 1.511-2.115 3.261-2.073 5.215l2-.043c-.03-1.384.458-2.643 1.541-3.813l-1.468-1.358zm-2.073 5.22c.054 1.968.869 3.666 2.371 5.057l1.359-1.468c-1.14-1.055-1.692-2.256-1.73-3.644l-2 .055zm2.371 5.057c1.161 1.074 2.497 1.715 3.993 1.87l.206-1.989c-1.024-.106-1.966-.538-2.84-1.348l-1.359 1.468zm3.986 1.869c1.483.163 2.917-.134 4.276-.864l-.946-1.762c-1.026.551-2.055.754-3.111.638l-.219 1.988zm3.123-1.011l1.145 1.06 1.359-1.468-1.145-1.06-1.359 1.468zm7.621 5.548l-2.219-3.084-1.624 1.168 2.22 3.084 1.623-1.168zm-3.615-3.312l-4.871 3.504 1.168 1.623 4.871-3.504-1.168-1.623zm-3.475 3.732l-.876-1.218-1.623 1.168.876 1.218 1.623-1.168zm-1.104.178l12.176-8.76-1.168-1.623-12.176 8.76 1.168 1.624zm10.781-8.988l3.084 4.286 1.623-1.168-3.084-4.286-1.623 1.168zm3.084 4.286c.831 1.156 1.111 2.179 1.003 3.104l1.987.232c.181-1.549-.329-3.062-1.367-4.504l-1.623 1.168zm1.002 3.119c-.095.937-.531 1.691-1.386 2.306l1.168 1.624c1.289-.927 2.051-2.184 2.207-3.728l-1.989-.202zm-1.386 2.306c-.641.461-1.287.677-1.957.69l.039 2c1.113-.021 2.147-.391 3.086-1.066l-1.168-1.623zm-1.957.69c-.658.013-1.309-.184-1.973-.642l-1.136 1.646c.968.668 2.024 1.017 3.148.996l-.039-2zm-3.407-.32l-3.492 6.036 1.731 1.002 3.493-6.036-1.732-1.002zm-1.814 5.952l-.958-1.331-1.624 1.168.958 1.331 1.624-1.168zm-.904-.247l3.314-5.735-1.732-1.001-3.314 5.735 1.732 1.001zm3.209-6.885l-.414-.512-1.623 1.168c.125.175.302.392.516.643l1.521-1.299zm5.802-4.885l-2.266-3.149-1.624 1.168 2.267 3.149 1.623-1.168zm-3.662-3.377l-5.033 3.621 1.168 1.624 5.033-3.621-1.168-1.623zm-5.26 5.017l2.219 3.084 1.624-1.168-2.22-3.084-1.623 1.168zm2.219 3.084c.798 1.109 1.771 1.904 2.954 2.097l.322-1.974c-.455-.074-1.017-.408-1.652-1.291l-1.624 1.168zm2.954 2.097c1.106.18 2.148-.101 3.077-.769l-1.168-1.623c-.542.39-1.055.505-1.587.419l-.322 1.974zm3.077-.769c.915-.658 1.496-1.552 1.675-2.65l-1.974-.322c-.088.54-.355.979-.869 1.348l1.168 1.624zm1.673-2.639c.205-1.172-.221-2.33-1.001-3.413l-1.623 1.168c.606.843.732 1.457.654 1.9l1.97.345zm3.195 19.558c-1.781.793-3.496.85-5.203.204l-.708 1.87c2.225.843 4.486.75 6.725-.247l-.814-1.827zm-5.203.204c-1.7-.644-2.947-1.838-3.758-3.658l-1.827.814c1.013 2.272 2.643 3.869 4.877 4.715l.708-1.87zm-3.758-3.658c-.804-1.806-.859-3.534-.203-5.243l-1.868-.717c-.857 2.234-.763 4.512.244 6.773l1.827-.814zm-.205-5.239c.662-1.701 1.851-2.937 3.633-3.73l-.814-1.827c-2.238.996-3.82 2.615-4.683 4.832l1.864.725zm3.633-3.73c1.795-.799 3.516-.858 5.221-.212l.709-1.87c-2.227-.843-4.495-.746-6.744.255l.814 1.827zm5.217-.213c1.71.656 2.957 1.853 3.762 3.66l1.827-.814c-1.008-2.262-2.638-3.856-4.872-4.713l-.717 1.867zm3.762 3.66c.811 1.82.864 3.546.205 5.239l1.864.725c.866-2.226.77-4.505-.242-6.778l-1.827.814zm.205 5.239c-.661 1.7-1.855 2.939-3.651 3.738l.814 1.827c2.249-1.001 3.838-2.621 4.701-4.84l-1.864-.725zm-9.363-9.087c-1.884.839-3.23 2.173-3.954 3.999l1.859.738c.513-1.294 1.455-2.262 2.908-2.909l-.813-1.827zm-3.954 3.999c-.727 1.832-.644 3.72.194 5.6l1.827-.814c-.638-1.433-.673-2.761-.162-4.049l-1.859-.738zm.194 5.6c.838 1.88 2.185 3.206 4.033 3.891l.696-1.875c-1.3-.482-2.264-1.397-2.902-2.83l-1.827.814zm4.033 3.891c1.841.683 3.734.576 5.618-.263l-.813-1.827c-1.454.647-2.804.699-4.109.215l-.696 1.875zm5.618-.263c1.895-.843 3.248-2.18 3.973-4.007l-1.859-.737c-.513 1.292-1.46 2.264-2.927 2.917l.813 1.827zm3.973-4.007c.726-1.831.643-3.72-.195-5.6l-1.827.814c.638 1.432.674 2.761.163 4.049l1.859.737zm-.195-5.6c-.837-1.88-2.185-3.206-4.033-3.891l-.695 1.875c1.3.482 2.263 1.397 2.901 2.83l1.827-.814zm-4.033-3.891c-1.843-.684-3.742-.573-5.636.271l.813 1.827c1.468-.653 2.824-.707 4.128-.223l.695-1.875zm-3.634 23.538l-1.361.329.47 1.944 1.361-.329-.47-1.944zm-.154 1.066l-1.457-6.026-1.944.47 1.457 6.026 1.944-.47zm-2.194-4.819l14.581-3.521-.47-1.944-14.581 3.521.47 1.944zm13.374-4.258l.352 1.458 1.944-.47-.352-1.458-1.944.47zm1.09.251l-13.22 3.193.469 1.944 13.22-3.193-.469-1.944zm-13.958 4.4l1.105 4.568 1.944-.47-1.105-4.568-1.944.47zm3.051 12.076l-1.391.152.217 1.988 1.392-.152-.218-1.988zm-.289 1.037l-.675-6.163-1.988.218.675 6.163 1.988-.218zm-1.561-5.06l14.911-1.631-.217-1.988-14.911 1.631.217 1.988zm13.809-2.516l.163 1.491 1.988-.218-.163-1.491-1.988.218zm1.048.388l-13.519 1.479.218 1.988 13.519-1.479-.218-1.988zm-14.404 2.582l.512 4.672 1.988-.218-.512-4.672-1.988.218zm1.142 8.269l-.011-1.5-2 .015.011 1.5 2-.015zm-1.004-.493l15-.107-.015-2-14.999.107.014 2zm13.993-1.099l.011 1.5 2-.015-.012-1.5-1.999.015zm1.003.493l-14.999.107.014 2 15-.107-.015-2zm-14.001 6.26l.206-1.486-1.981-.275-.206 1.486 1.981.275zm-.922-.633l14.857 2.069.275-1.981-14.856-2.069-.276 1.981zm14.004.941l-.46 3.308 1.981.275.46-3.308-1.981-.275zm.236 2.49l-14.346 4.423.59 1.911 14.345-4.423-.589-1.911zm-15.041 5.241l-.124.891 1.981.275.124-.891-1.981-.275zm.728 2.019l13.47 1.876.276-1.981-13.47-1.876-.276 1.981zm12.618.748l-.207 1.486 1.981.275.207-1.486-1.981-.275zm.922.633l-14.857-2.069-.276 1.981 14.857 2.069.276-1.981zm-14.005-.941l.46-3.308-1.981-.275-.459 3.308 1.98.275zm-.236-2.49l14.346-4.423-.589-1.911-14.346 4.423.589 1.911zm15.042-5.241l.124-.891-1.981-.275-.124.891 1.981.275zm-.729-2.019l-13.47-1.876-.276 1.981 13.47 1.876.276-1.981zm-13.507 26.705a6.16 6.16 0 0 1-3.609-3.389l-1.824.818a8.15 8.15 0 0 0 4.73 4.443l.703-1.872zm-3.607-3.385c-.723-1.632-.765-3.292-.109-5.04l-1.873-.703c-.834 2.222-.789 4.426.154 6.553l1.828-.81zm-.109-5.04c.689-1.837 1.856-3.093 3.516-3.838l-.818-1.825c-2.176.976-3.705 2.653-4.571 4.96l1.873.703zm3.516-3.838c1.666-.747 3.38-.793 5.206-.107l.703-1.872c-2.294-.862-4.557-.82-6.727.154l.818 1.825zm5.206-.107c1.845.693 3.117 1.851 3.886 3.485l1.809-.851c-1.005-2.137-2.693-3.643-4.992-4.506l-.703 1.872zm3.884 3.481c.763 1.642.819 3.341.135 5.164l1.872.703c.862-2.297.808-4.555-.194-6.71l-1.813.843zm.135 5.164c-.537 1.429-1.415 2.528-2.645 3.33l1.092 1.676c1.598-1.041 2.743-2.487 3.425-4.303l-1.872-.703zm-2.645 3.33c-1.227.801-2.578 1.149-4.087 1.044l-.139 1.995c1.933.134 3.718-.32 5.318-1.363l-1.092-1.676zm-3.22 2.393l.555-1.479-1.873-.703-.555 1.479 1.873.703zm-.377-.831c1.505-.006 2.883-.424 4.105-1.255l-1.126-1.654c-.881.601-1.868.905-2.988.909l.009 2zm4.1-1.252c1.234-.829 2.121-1.991 2.666-3.443l-1.872-.703c-.411 1.094-1.049 1.908-1.91 2.486l1.116 1.66zm2.666-3.443c.716-1.907.674-3.777-.174-5.538l-1.802.868c.592 1.229.644 2.528.104 3.967l1.872.703zm-.174-5.538c-.845-1.753-2.279-2.989-4.214-3.716l-.703 1.873c1.51.567 2.519 1.473 3.115 2.711l1.802-.868zm-4.214-3.716c-1.928-.724-3.819-.726-5.611.052l.796 1.835c1.269-.551 2.619-.575 4.112-.014l.703-1.873zm-5.617.054c-1.801.794-3.065 2.19-3.785 4.107l1.873.702c.545-1.453 1.449-2.419 2.719-2.979l-.807-1.83zm-3.785 4.107c-.636 1.694-.67 3.385-.07 5.027l1.879-.686c-.426-1.164-.416-2.362.064-3.639l-1.873-.702zm-.067 5.034c.612 1.641 1.717 2.887 3.278 3.705l.928-1.772a4.73 4.73 0 0 1-2.333-2.633l-1.873.7zm4.678 3.17l1.75-4.662-1.872-.703-1.75 4.662 1.872.703zm.462-4.077l1.311.492.703-1.873-1.31-.492-.704 1.873zm.726-.796l-2.284 6.086 1.873.702 2.284-6.085-1.873-.703zm-.996 5.501l-.561-.211-.704 1.872.562.211.703-1.872zm-7.188 13.034l.882-1.287-1.65-1.131-.882 1.287 1.65 1.131zm-.508-1.027l2.144 1.469 1.131-1.649-2.145-1.47-1.13 1.65zm1.885.079l-.882 1.287 1.65 1.131.881-1.287-1.649-1.131zm.508 1.027l-2.145-1.469-1.13 1.649 2.144 1.47 1.131-1.65zm-37.358-77.208c-.091-.37-.217-.718-.433-1.049a3.34 3.34 0 0 0-.789-.819l-1.22 1.585a1.39 1.39 0 0 1 .336.33c.052.079.106.194.163.428l1.943-.475zm-1.222-1.867c-1.021-.786-2.543-.771-3.591-.055l1.127 1.652c.388-.265.96-.231 1.244-.012l1.22-1.585zm-3.591-.055c-.095.064-.255.202-.396.324l-.689.605-2.316 2.07-7.223 6.536 1.346 1.48 7.215-6.528 2.305-2.06.671-.589.215-.185-1.127-1.652zm-10.625 9.535l-7.097 6.428-2.178 1.952-.595.525-.145.124-.012.01.045-.032a.94.94 0 0 1 .088-.051.99.99 0 0 1 .119-.051c.039-.014.166-.058.336-.058v2c.17 0 .297-.044.337-.058a1 1 0 0 0 .121-.052c.046-.024.081-.046.096-.056l.07-.05.076-.061.179-.153.613-.54 2.188-1.961 7.104-6.434-1.346-1.48zm-9.439 8.846c.169 0 .296.044.335.058a.99.99 0 0 1 .119.051.94.94 0 0 1 .088.051l.045.032-.157-.134-.595-.525-2.178-1.952-7.097-6.428-1.346 1.48 7.104 6.434 2.188 1.961.613.54.179.153.076.061.07.05c.014.01.049.032.096.056a1 1 0 0 0 .121.052c.04.014.167.058.337.058v-2zm-9.439-8.846l-7.216-6.531-2.308-2.065-.683-.601-.391-.321-1.129 1.651c-.028-.019.018.016.209.181l.667.586 2.298 2.055 7.207 6.523 1.346-1.48zm-10.598-9.518c-.976-.667-2.116-.75-3.167-.204l.923 1.774c.379-.197.733-.181 1.116.08l1.129-1.651zm-3.167-.203c-1.037.539-1.607 1.426-1.745 2.59l1.986.237c.066-.557.277-.841.683-1.052l-.923-1.774zm-1.745 2.59c-.018.155-.028.492-.035.885l-.017 1.653.005 4.9 2-.012-.004-4.877.017-1.628.012-.497.009-.187-1.986-.236zm-.047 7.438l.07 5.764c.037.914.093 1.356.355 1.793l1.715-1.028c.005.015-.001.004-.01-.046-.021-.116-.044-.338-.062-.798l-.069-5.696-2 .012zm.425 7.557c.055.092.119.164.134.181l.091.1.232.234.754.723 2.557 2.382 7.64 6.991 7.708 6.962 2.642 2.345.809.698.262.216c.045.036.154.123.262.182l.968-1.75c.065.036.09.061.013.001a9.96 9.96 0 0 1-.217-.179l-.78-.673-2.625-2.329-7.696-6.951-7.629-6.98-2.54-2.366-.725-.695-.186-.187-.022-.024c.011.014.036.046.065.094l-1.715 1.028zm23.092 21.013a2.97 2.97 0 0 0 2.689.155l-.777-1.843c-.324.137-.601.127-.945-.063l-.968 1.75zm2.689.155c.118-.05.21-.117.224-.126a2.82 2.82 0 0 0 .11-.081 9.89 9.89 0 0 0 .252-.205l.785-.672 2.602-2.297 7.675-6.903 7.681-7.002 2.608-2.421.787-.752.447-.475-1.611-1.185c.026-.036-.015.016-.234.229l-.76.726-2.592 2.405-7.668 6.991-7.662 6.892-2.583 2.281-.753.644-.198.161-.029.022.025-.016c.009-.005.054-.033.119-.061l.777 1.843zm23.17-20.932l.384-.521-1.612-1.185-.383.521 1.611 1.185zm.578-1.111l.021-6.987-2-.006-.021 6.987 2 .006zm.021-6.987l-.013-5.061-.026-1.64-.017-.505-.012-.179c-.002-.029-.01-.129-.034-.23l-1.943.475-.016-.078a3.48 3.48 0 0 1 .007.111l.016.457.025 1.609.013 5.035 2 .006zm-.202 20.668c-.176-.497-.526-.951-.877-1.284-.34-.324-.82-.667-1.347-.784l-.433 1.953c-.005-.001.038.009.126.064a1.76 1.76 0 0 1 .276.216c.208.198.332.396.369.501l1.886-.666zm-2.224-2.068c-.371-.082-.926-.071-1.304-.013l.299 1.977c.093-.014.224-.023.354-.023a2.14 2.14 0 0 1 .163.006l.055.006.433-1.953zm-1.304-.013c-.001 0-.004.001-.032.003l-.17.017c-.202.03-.384.097-.574.205-.302.171-.709.501-1.382 1.086-1.394 1.213-4.239 3.808-10.361 9.373l1.345 1.48 10.329-9.344c.711-.618.962-.802 1.056-.855.009-.005-.042.022-.118.034-.016.002-.029.003.018-.001a2.29 2.29 0 0 0 .188-.02l-.299-1.977zM90.735 87.354l-6.602 5.978-2.025 1.815-.553.488-.134.115c-.015.012-.016.013-.01.008.001-.001.018-.014.044-.031.011-.007.042-.028.085-.051.021-.011.063-.032.117-.052a1 1 0 0 1 .347-.062v2c.178 0 .311-.049.348-.062a1.03 1.03 0 0 0 .12-.053c.045-.024.079-.046.092-.055a1.21 1.21 0 0 0 .066-.048c.025-.019.051-.04.071-.057l.166-.143.57-.503 2.034-1.824 6.609-5.984-1.345-1.48zm-8.731 8.209c.188 0 .327.055.36.067.054.021.095.042.115.053.041.023.072.043.082.05.024.016.039.028.04.029l-.161-.138-.594-.526-2.175-1.953-7.097-6.431-1.346 1.48 7.104 6.437 2.184 1.961.61.54.176.151.072.058a1.12 1.12 0 0 0 .064.047 1.06 1.06 0 0 0 .089.054 1.02 1.02 0 0 0 .117.054c.033.013.173.068.362.068v-2zm-9.432-8.85l-7.205-6.535-3.308-2.962-1.225 1.581c-.003-.003.063.054.241.212l.663.592 2.288 2.062 7.2 6.531 1.346-1.48zM62.06 77.216c-.233-.181-.494-.348-.847-.446-.319-.088-.651-.101-.986-.102l-.006 2c.317.001.417.018.458.029.005.001.03.002.156.1l1.225-1.581zm-1.833-.548c-.337-.001-.678.008-1.008.102-.361.103-.627.283-.863.464l1.22 1.585c.162-.125.191-.126.192-.126.033-.009.122-.026.454-.026l.005-2zm-1.871.567c-.147.113-.518.356-.765.72-.272.399-.378.871-.438 1.42-.117 1.073-.104 3.08-.104 7.079h2c0-4.094-.009-5.931.092-6.862.049-.454.112-.525.102-.51-.005.007-.002-.002.046-.042.074-.061.124-.094.286-.219l-1.22-1.585zm-1.307 9.218v7.24h2v-7.24h-2zm.186 7.82l.319.448 1.628-1.162-.319-.448-1.628 1.162zm.319.448c.067.093.158.188.202.233a12.5 12.5 0 0 0 .243.242l.781.745 2.61 2.421 7.716 7.039 7.719 6.952 2.613 2.313.785.675.25.204c.034.026.071.055.108.081.01.007.105.077.227.128l.777-1.842c.069.029.117.059.125.064.016.01.025.016.026.017s-.008-.006-.03-.023l-.198-.163-.755-.648-2.596-2.298-7.707-6.942-7.705-7.028-2.594-2.406-.755-.72-.204-.203c-.067-.069-.047-.054-.01-.002l-1.628 1.162zm23.254 21.032a3.03 3.03 0 0 0 2.396 0l-.777-1.842c-.283.119-.559.119-.841 0l-.777 1.842zm2.396 0c.122-.051.217-.121.227-.128.037-.026.074-.055.108-.081a10.64 10.64 0 0 0 .25-.204l.785-.675 2.613-2.313 7.719-6.952 7.716-7.038 2.61-2.421.781-.745.243-.242c.044-.045.136-.139.203-.233l-1.628-1.162c.036-.052.056-.067-.01.002a12.32 12.32 0 0 1-.204.203l-.755.72-2.594 2.406-7.705 7.028-7.707 6.942-2.596 2.298-.754.648-.198.163-.03.023c0-.001.01-.007.026-.017a.93.93 0 0 1 .125-.065l.777 1.843zm23.254-21.032l.319-.448-1.628-1.162-.32.448 1.629 1.162zm.505-1.024l.029-7.046-2-.008-.029 7.046 2 .008zm.029-7.046l-.011-5.83c-.012-.56-.029-.972-.055-1.278-.025-.292-.062-.559-.144-.79l-1.886.665c-.006-.018.016.039.037.294.021.241.037.601.048 1.149.022 1.094.023 2.865.011 5.782l2 .008z" fill="#fff" mask="url(#A)"/></svg>